<svg id="Layer_1" data-name="Layer 1" xmlns="http://www.w3.org/2000/svg" xmlns:xlink="http://www.w3.org/1999/xlink" viewBox="0 0 810.89 132.42"><defs><style>.cls-1{fill:url(#linear-gradient);}.cls-2{fill:url(#linear-gradient-2);}.cls-3{fill:url(#linear-gradient-3);}.cls-4{fill:url(#linear-gradient-4);}.cls-5{fill:url(#linear-gradient-5);}.cls-6{fill:url(#linear-gradient-6);}.cls-7{fill:url(#linear-gradient-7);}.cls-8{fill:url(#linear-gradient-8);}.cls-9{fill:url(#linear-gradient-9);}.cls-10{fill:url(#linear-gradient-10);}.cls-11{fill:url(#linear-gradient-11);}.cls-12{fill:url(#linear-gradient-12);}.cls-13{fill:url(#linear-gradient-13);}.cls-14{fill:url(#linear-gradient-14);}.cls-15{fill:url(#linear-gradient-15);}.cls-16{fill:url(#linear-gradient-16);}.cls-17{fill:url(#linear-gradient-17);}.cls-18{fill:url(#linear-gradient-18);}.cls-19{fill:url(#linear-gradient-19);}.cls-20{fill:url(#linear-gradient-20);}.cls-21{fill:url(#linear-gradient-21);}.cls-22{fill:url(#linear-gradient-22);}.cls-23{fill:url(#linear-gradient-23);}.cls-24{fill:url(#linear-gradient-24);}.cls-25{fill:url(#linear-gradient-25);}.cls-26{fill:url(#linear-gradient-26);}.cls-27{fill:url(#linear-gradient-27);}.cls-28{fill:url(#linear-gradient-28);}.cls-29{fill:url(#linear-gradient-29);}.cls-30{fill:url(#linear-gradient-30);}.cls-31{fill:url(#linear-gradient-31);}.cls-32{fill:url(#linear-gradient-32);}.cls-33{fill:url(#linear-gradient-33);}.cls-34{fill:url(#linear-gradient-34);}.cls-35{fill:url(#linear-gradient-35);}.cls-36{fill:url(#linear-gradient-36);}.cls-37{fill:url(#linear-gradient-37);}.cls-38{fill:url(#linear-gradient-38);}.cls-39{fill:url(#linear-gradient-39);}.cls-40{fill:url(#linear-gradient-40);}.cls-41{fill:url(#linear-gradient-41);}.cls-42{fill:url(#linear-gradient-42);}.cls-43{fill:url(#linear-gradient-43);}.cls-44{fill:url(#linear-gradient-44);}.cls-45{fill:url(#linear-gradient-45);}.cls-46{fill:url(#linear-gradient-46);}</style><linearGradient id="linear-gradient" x1="496.81" y1="516.71" x2="1732.4" y2="240.44" gradientUnits="userSpaceOnUse"><stop offset="0" stop-color="#ee7752"/><stop offset="0.2" stop-color="#e73c7e"/><stop offset="0.55" stop-color="#23a6d5"/><stop offset="1" stop-color="#23d5ab"/></linearGradient><linearGradient id="linear-gradient-2" x1="498.75" y1="525.4" x2="1734.35" y2="249.13" xlink:href="#linear-gradient"/><linearGradient id="linear-gradient-3" x1="499.9" y1="530.55" x2="1735.5" y2="254.28" xlink:href="#linear-gradient"/><linearGradient id="linear-gradient-4" x1="502.71" y1="543.08" x2="1738.3" y2="266.81" xlink:href="#linear-gradient"/><linearGradient id="linear-gradient-5" x1="505.4" y1="555.12" x2="1740.99" y2="278.85" xlink:href="#linear-gradient"/><linearGradient id="linear-gradient-6" x1="507.97" y1="566.61" x2="1743.56" y2="290.34" xlink:href="#linear-gradient"/><linearGradient id="linear-gradient-7" x1="508.32" y1="568.18" x2="1743.91" y2="291.91" xlink:href="#linear-gradient"/><linearGradient id="linear-gradient-8" x1="511.61" y1="582.89" x2="1747.2" y2="306.62" xlink:href="#linear-gradient"/><linearGradient id="linear-gradient-9" x1="511.26" y1="581.35" x2="1746.86" y2="305.08" xlink:href="#linear-gradient"/><linearGradient id="linear-gradient-10" x1="513.16" y1="589.85" x2="1748.76" y2="313.58" xlink:href="#linear-gradient"/><linearGradient id="linear-gradient-11" x1="515.48" y1="600.19" x2="1751.07" y2="323.92" xlink:href="#linear-gradient"/><linearGradient id="linear-gradient-12" x1="516.05" y1="602.77" x2="1751.65" y2="326.5" xlink:href="#linear-gradient"/><linearGradient id="linear-gradient-13" x1="518.86" y1="615.31" x2="1754.45" y2="339.04" xlink:href="#linear-gradient"/><linearGradient id="linear-gradient-14" x1="521.25" y1="626.01" x2="1756.84" y2="349.74" xlink:href="#linear-gradient"/><linearGradient id="linear-gradient-15" x1="521.91" y1="628.97" x2="1757.5" y2="352.7" xlink:href="#linear-gradient"/><linearGradient id="linear-gradient-16" x1="522.18" y1="630.18" x2="1757.77" y2="353.91" xlink:href="#linear-gradient"/><linearGradient id="linear-gradient-17" x1="523.36" y1="635.45" x2="1758.95" y2="359.18" xlink:href="#linear-gradient"/><linearGradient id="linear-gradient-18" x1="524.25" y1="639.45" x2="1759.85" y2="363.18" xlink:href="#linear-gradient"/><linearGradient id="linear-gradient-19" x1="527.8" y1="655.3" x2="1763.39" y2="379.03" xlink:href="#linear-gradient"/><linearGradient id="linear-gradient-20" x1="529.79" y1="664.2" x2="1765.38" y2="387.93" xlink:href="#linear-gradient"/><linearGradient id="linear-gradient-21" x1="531.07" y1="669.94" x2="1766.66" y2="393.67" xlink:href="#linear-gradient"/><linearGradient id="linear-gradient-22" x1="533.77" y1="681.99" x2="1769.36" y2="405.72" xlink:href="#linear-gradient"/><linearGradient id="linear-gradient-23" x1="535.07" y1="687.84" x2="1770.67" y2="411.57" xlink:href="#linear-gradient"/><linearGradient id="linear-gradient-24" x1="513.51" y1="591.39" x2="1749.1" y2="315.12" xlink:href="#linear-gradient"/><linearGradient id="linear-gradient-25" x1="515.2" y1="598.97" x2="1750.8" y2="322.7" xlink:href="#linear-gradient"/><linearGradient id="linear-gradient-26" x1="517.15" y1="607.69" x2="1752.75" y2="331.42" xlink:href="#linear-gradient"/><linearGradient id="linear-gradient-27" x1="518.93" y1="615.66" x2="1754.53" y2="339.39" xlink:href="#linear-gradient"/><linearGradient id="linear-gradient-28" x1="519.6" y1="618.62" x2="1755.19" y2="342.35" xlink:href="#linear-gradient"/><linearGradient id="linear-gradient-29" x1="521.43" y1="626.81" x2="1757.02" y2="350.54" xlink:href="#linear-gradient"/><linearGradient id="linear-gradient-30" x1="523.23" y1="634.89" x2="1758.83" y2="358.62" xlink:href="#linear-gradient"/><linearGradient id="linear-gradient-31" x1="525.19" y1="643.62" x2="1760.78" y2="367.35" xlink:href="#linear-gradient"/><linearGradient id="linear-gradient-32" x1="525.86" y1="646.65" x2="1761.46" y2="370.38" xlink:href="#linear-gradient"/><linearGradient id="linear-gradient-33" x1="526.13" y1="647.86" x2="1761.73" y2="371.58" xlink:href="#linear-gradient"/><linearGradient id="linear-gradient-34" x1="529.1" y1="661.11" x2="1764.69" y2="384.84" xlink:href="#linear-gradient"/><linearGradient id="linear-gradient-35" x1="531.05" y1="669.82" x2="1766.64" y2="393.55" xlink:href="#linear-gradient"/><linearGradient id="linear-gradient-36" x1="534.58" y1="685.62" x2="1770.17" y2="409.35" xlink:href="#linear-gradient"/><linearGradient id="linear-gradient-37" x1="533.82" y1="682.22" x2="1769.41" y2="405.95" xlink:href="#linear-gradient"/><linearGradient id="linear-gradient-38" x1="536.95" y1="696.23" x2="1772.54" y2="419.96" xlink:href="#linear-gradient"/><linearGradient id="linear-gradient-39" x1="538.26" y1="702.08" x2="1773.85" y2="425.81" xlink:href="#linear-gradient"/><linearGradient id="linear-gradient-40" x1="540.03" y1="710" x2="1775.62" y2="433.73" xlink:href="#linear-gradient"/><linearGradient id="linear-gradient-41" x1="537.56" y1="698.95" x2="1773.15" y2="422.68" xlink:href="#linear-gradient"/><linearGradient id="linear-gradient-42" x1="542.45" y1="720.81" x2="1778.04" y2="444.54" xlink:href="#linear-gradient"/><linearGradient id="linear-gradient-43" x1="545.14" y1="732.85" x2="1780.73" y2="456.58" xlink:href="#linear-gradient"/><linearGradient id="linear-gradient-44" x1="546.5" y1="738.94" x2="1782.09" y2="462.67" xlink:href="#linear-gradient"/><linearGradient id="linear-gradient-45" x1="550.29" y1="755.91" x2="1785.89" y2="479.64" xlink:href="#linear-gradient"/><linearGradient id="linear-gradient-46" x1="552.96" y1="767.85" x2="1788.56" y2="491.58" xlink:href="#linear-gradient"/></defs><title>under-construction-title</title><path class="cls-1" d="M567.46,489.45h-12.9V480h37.62v9.42H579.34V522H567.46Z" transform="translate(-554.56 -473.79)"/><path class="cls-2" d="M630.69,503.43V522h-11.4V505.29c0-4.68-2-6.66-5.34-6.66-3.66,0-6.48,2.28-6.48,7.68V522h-11.4V477.51h11.4v15a14.09,14.09,0,0,1,9.78-3.54C624.87,489,630.69,493.35,630.69,503.43Z" transform="translate(-554.56 -473.79)"/><path class="cls-3" d="M636.58,479.85c0-3.42,2.76-6.06,7-6.06s7,2.46,7,5.88c0,3.6-2.76,6.24-7,6.24S636.58,483.27,636.58,479.85Zm1.26,9.66h11.4V522h-11.4Z" transform="translate(-554.56 -473.79)"/><path class="cls-4" d="M654,519.21l3.42-7.8a22.81,22.81,0,0,0,11.34,3c3.84,0,5.1-.84,5.1-2.22,0-4.38-19.2.6-19.2-12.42,0-6.12,5.64-10.8,15.84-10.8,4.56,0,9.6,1,12.84,2.76L680,499.47a19.06,19.06,0,0,0-9.36-2.4c-3.84,0-5.22,1.08-5.22,2.28,0,4.5,19.14-.36,19.14,12.54,0,6-5.52,10.68-16.08,10.68C662.92,522.57,657.22,521.19,654,519.21Z" transform="translate(-554.56 -473.79)"/><path class="cls-5" d="M760.77,489.51,749.19,522h-11L732,504.33,725.67,522h-11l-11.58-32.52h10.8l6.66,19.68,6.9-19.68h9.72l6.72,19.86,6.9-19.86Z" transform="translate(-554.56 -473.79)"/><path class="cls-6" d="M796.41,508.65H772.77c1,3.3,3.78,5.22,8,5.22a10.42,10.42,0,0,0,7.5-2.82l6,6.24c-3.12,3.48-7.68,5.28-13.86,5.28-11.58,0-19.08-7.14-19.08-16.86S768.93,489,779.19,489c9.6,0,17.4,6.12,17.4,16.86C796.59,506.67,796.47,507.75,796.41,508.65Zm-23.82-6h13.32a6.76,6.76,0,0,0-13.32,0Z" transform="translate(-554.56 -473.79)"/><path class="cls-7" d="M838.29,505.71c0,10.38-7.14,16.86-16,16.86-4.26,0-7.44-1.2-9.6-3.78V522H801.87V477.51h11.4v14.82c2.22-2.28,5.28-3.36,9.06-3.36C831.15,489,838.29,495.39,838.29,505.71Zm-11.52,0c0-4.92-3-7.68-6.84-7.68s-6.84,2.76-6.84,7.68,3,7.8,6.84,7.8S826.77,510.69,826.77,505.71Z" transform="translate(-554.56 -473.79)"/><path class="cls-8" d="M841,519.21l3.42-7.8a22.81,22.81,0,0,0,11.34,3c3.84,0,5.1-.84,5.1-2.22,0-4.38-19.2.6-19.2-12.42,0-6.12,5.64-10.8,15.84-10.8,4.56,0,9.6,1,12.84,2.76l-3.42,7.74a19.06,19.06,0,0,0-9.36-2.4c-3.84,0-5.22,1.08-5.22,2.28,0,4.5,19.14-.36,19.14,12.54,0,6-5.52,10.68-16.08,10.68C849.87,522.57,844.17,521.19,841,519.21Z" transform="translate(-554.56 -473.79)"/><path class="cls-9" d="M875.13,479.85c0-3.42,2.76-6.06,7-6.06s7,2.46,7,5.88c0,3.6-2.76,6.24-7,6.24S875.13,483.27,875.13,479.85Zm1.26,9.66h11.4V522h-11.4Z" transform="translate(-554.56 -473.79)"/><path class="cls-10" d="M917.61,520.71a15.33,15.33,0,0,1-7.92,1.86c-8.34,0-13.2-4.08-13.2-12.42V499.23h-4.74v-8.52h4.74v-8.46h11.4v8.46h7.44v8.52h-7.44V510c0,2.4,1.38,3.72,3.42,3.72a6.24,6.24,0,0,0,3.48-1Z" transform="translate(-554.56 -473.79)"/><path class="cls-11" d="M954.09,508.65H930.45c1,3.3,3.78,5.22,8,5.22a10.42,10.42,0,0,0,7.5-2.82l6,6.24c-3.12,3.48-7.68,5.28-13.86,5.28-11.58,0-19.08-7.14-19.08-16.86S926.61,489,936.87,489c9.6,0,17.4,6.12,17.4,16.86C954.27,506.67,954.15,507.75,954.09,508.65Zm-23.82-6h13.32a6.76,6.76,0,0,0-13.32,0Z" transform="translate(-554.56 -473.79)"/><path class="cls-12" d="M975.75,479.85c0-3.42,2.76-6.06,7-6.06s7,2.46,7,5.88c0,3.6-2.76,6.24-7,6.24S975.75,483.27,975.75,479.85Zm1.26,9.66h11.4V522H977Z" transform="translate(-554.56 -473.79)"/><path class="cls-13" d="M993.21,519.21l3.42-7.8a22.81,22.81,0,0,0,11.34,3c3.84,0,5.1-.84,5.1-2.22,0-4.38-19.2.6-19.2-12.42,0-6.12,5.64-10.8,15.84-10.8,4.56,0,9.6,1,12.84,2.76l-3.42,7.74a19.06,19.06,0,0,0-9.36-2.4c-3.84,0-5.22,1.08-5.22,2.28,0,4.5,19.14-.36,19.14,12.54,0,6-5.52,10.68-16.08,10.68C1002.09,522.57,996.39,521.19,993.21,519.21Z" transform="translate(-554.56 -473.79)"/><path class="cls-14" d="M1043.49,519.21l3.42-7.8a22.81,22.81,0,0,0,11.34,3c3.84,0,5.1-.84,5.1-2.22,0-4.38-19.2.6-19.2-12.42,0-6.12,5.64-10.8,15.84-10.8,4.56,0,9.6,1,12.84,2.76l-3.42,7.74a19.06,19.06,0,0,0-9.36-2.4c-3.84,0-5.22,1.08-5.22,2.28,0,4.5,19.14-.36,19.14,12.54,0,6-5.52,10.68-16.08,10.68C1052.37,522.57,1046.67,521.19,1043.49,519.21Z" transform="translate(-554.56 -473.79)"/><path class="cls-15" d="M1101.33,520.71a15.33,15.33,0,0,1-7.92,1.86c-8.34,0-13.2-4.08-13.2-12.42V499.23h-4.74v-8.52h4.74v-8.46h11.4v8.46H1099v8.52h-7.44V510c0,2.4,1.38,3.72,3.42,3.72a6.24,6.24,0,0,0,3.48-1Z" transform="translate(-554.56 -473.79)"/><path class="cls-16" d="M1104.45,479.85c0-3.42,2.76-6.06,7-6.06s7,2.46,7,5.88c0,3.6-2.76,6.24-7,6.24S1104.45,483.27,1104.45,479.85Zm1.26,9.66h11.4V522h-11.4Z" transform="translate(-554.56 -473.79)"/><path class="cls-17" d="M1124.49,477.51h11.4V522h-11.4Z" transform="translate(-554.56 -473.79)"/><path class="cls-18" d="M1143.27,477.51h11.4V522h-11.4Z" transform="translate(-554.56 -473.79)"/><path class="cls-19" d="M1213.7,489.51V522h-10.86v-3.48a12.81,12.81,0,0,1-9.66,4c-8,0-13.8-4.56-13.8-14.88V489.51h11.4v16.32c0,5,2,7,5.4,7s6.12-2.22,6.12-7.68V489.51Z" transform="translate(-554.56 -473.79)"/><path class="cls-20" d="M1255.64,503.43V522h-11.4V505.29c0-4.68-2-6.66-5.34-6.66-3.66,0-6.48,2.28-6.48,7.68V522H1221V489.51h10.86v3.54A14,14,0,0,1,1242.2,489C1249.82,489,1255.64,493.35,1255.64,503.43Z" transform="translate(-554.56 -473.79)"/><path class="cls-21" d="M1297.82,477.51V522H1287v-3.24c-2.16,2.58-5.34,3.78-9.54,3.78-8.88,0-16-6.48-16-16.86s7.14-16.74,16-16.74c3.78,0,6.84,1.08,9,3.36V477.51Zm-11.22,28.2c0-4.92-2.94-7.68-6.78-7.68s-6.84,2.76-6.84,7.68,2.94,7.8,6.84,7.8S1286.6,510.69,1286.6,505.71Z" transform="translate(-554.56 -473.79)"/><path class="cls-22" d="M1338.2,508.65h-23.64c1,3.3,3.78,5.22,8,5.22A10.42,10.42,0,0,0,1330,511l6,6.24c-3.12,3.48-7.68,5.28-13.86,5.28-11.58,0-19.08-7.14-19.08-16.86S1310.72,489,1321,489c9.6,0,17.4,6.12,17.4,16.86C1338.38,506.67,1338.26,507.75,1338.2,508.65Zm-23.82-6h13.32a6.76,6.76,0,0,0-13.32,0Z" transform="translate(-554.56 -473.79)"/><path class="cls-23" d="M1365.44,489v10.26a20.84,20.84,0,0,0-2.58-.18c-4.62,0-7.8,2.34-7.8,8V522h-11.4V489.51h10.86v3.9C1356.86,490.47,1360.64,489,1365.44,489Z" transform="translate(-554.56 -473.79)"/><path class="cls-24" d="M555.85,577.71c0-9.78,7.74-16.74,18.66-16.74,7.38,0,13,3.3,15.24,8.94l-8.82,4.5c-1.56-3.06-3.84-4.38-6.48-4.38-4,0-7.08,2.76-7.08,7.68s3.12,7.8,7.08,7.8c2.64,0,4.92-1.32,6.48-4.38l8.82,4.5c-2.22,5.64-7.86,8.94-15.24,8.94C563.58,594.57,555.85,587.61,555.85,577.71Z" transform="translate(-554.56 -473.79)"/><path class="cls-25" d="M591.67,577.71c0-9.78,7.74-16.74,18.36-16.74s18.36,7,18.36,16.74-7.62,16.86-18.36,16.86S591.67,587.55,591.67,577.71Zm25.2,0c0-4.92-2.94-7.68-6.84-7.68s-6.84,2.76-6.84,7.68,3,7.8,6.84,7.8S616.86,582.69,616.86,577.71Z" transform="translate(-554.56 -473.79)"/><path class="cls-26" d="M668.28,575.43V594h-11.4V577.29c0-4.68-2-6.66-5.34-6.66-3.66,0-6.48,2.28-6.48,7.68V594h-11.4V561.51h10.86v3.54A14,14,0,0,1,654.84,561C662.46,561,668.28,565.35,668.28,575.43Z" transform="translate(-554.56 -473.79)"/><path class="cls-27" d="M672.84,591.21l3.42-7.8a22.81,22.81,0,0,0,11.34,3c3.84,0,5.1-.84,5.1-2.22,0-4.38-19.2.6-19.2-12.42,0-6.12,5.64-10.8,15.84-10.8,4.56,0,9.6,1,12.84,2.76l-3.42,7.74a19.06,19.06,0,0,0-9.36-2.4c-3.84,0-5.22,1.08-5.22,2.28,0,4.5,19.14-.36,19.14,12.54,0,6-5.52,10.68-16.08,10.68C681.72,594.57,676,593.19,672.84,591.21Z" transform="translate(-554.56 -473.79)"/><path class="cls-28" d="M730.68,592.71a15.33,15.33,0,0,1-7.92,1.86c-8.34,0-13.2-4.08-13.2-12.42V571.23h-4.74v-8.52h4.74v-8.46H721v8.46h7.44v8.52H721V582c0,2.4,1.38,3.72,3.42,3.72a6.24,6.24,0,0,0,3.48-1Z" transform="translate(-554.56 -473.79)"/><path class="cls-29" d="M756.84,561v10.26a20.82,20.82,0,0,0-2.58-.18c-4.62,0-7.8,2.34-7.8,8V594h-11.4V561.51h10.86v3.9C748.26,562.47,752,561,756.84,561Z" transform="translate(-554.56 -473.79)"/><path class="cls-30" d="M795.84,561.51V594H785v-3.48a12.81,12.81,0,0,1-9.66,4c-8,0-13.8-4.56-13.8-14.88V561.51h11.4v16.32c0,5,2,7,5.4,7s6.12-2.22,6.12-7.68V561.51Z" transform="translate(-554.56 -473.79)"/><path class="cls-31" d="M801.12,577.71c0-9.78,7.74-16.74,18.66-16.74,7.38,0,13,3.3,15.24,8.94l-8.82,4.5c-1.56-3.06-3.84-4.38-6.48-4.38-4,0-7.08,2.76-7.08,7.68s3.12,7.8,7.08,7.8c2.64,0,4.92-1.32,6.48-4.38l8.82,4.5c-2.22,5.64-7.86,8.94-15.24,8.94C808.86,594.57,801.12,587.61,801.12,577.71Z" transform="translate(-554.56 -473.79)"/><path class="cls-32" d="M862.32,592.71a15.33,15.33,0,0,1-7.92,1.86c-8.34,0-13.2-4.08-13.2-12.42V571.23h-4.74v-8.52h4.74v-8.46h11.4v8.46H860v8.52H852.6V582c0,2.4,1.38,3.72,3.42,3.72a6.24,6.24,0,0,0,3.48-1Z" transform="translate(-554.56 -473.79)"/><path class="cls-33" d="M865.44,551.85c0-3.42,2.76-6.06,7-6.06s7,2.46,7,5.88c0,3.6-2.76,6.24-7,6.24S865.44,555.27,865.44,551.85Zm1.26,9.66h11.4V594H866.7Z" transform="translate(-554.56 -473.79)"/><path class="cls-34" d="M883.44,577.71c0-9.78,7.74-16.74,18.36-16.74s18.36,7,18.36,16.74-7.62,16.86-18.36,16.86S883.44,587.55,883.44,577.71Zm25.2,0c0-4.92-2.94-7.68-6.84-7.68s-6.84,2.76-6.84,7.68,3,7.8,6.84,7.8S908.64,582.69,908.64,577.71Z" transform="translate(-554.56 -473.79)"/><path class="cls-35" d="M960.06,575.43V594h-11.4V577.29c0-4.68-2-6.66-5.34-6.66-3.66,0-6.48,2.28-6.48,7.68V594h-11.4V561.51H936.3v3.54A14,14,0,0,1,946.62,561C954.24,561,960.06,565.35,960.06,575.43Z" transform="translate(-554.56 -473.79)"/><path class="cls-36" d="M965.16,587.79a6.84,6.84,0,0,1,13.68,0,6.84,6.84,0,0,1-13.68,0Z" transform="translate(-554.56 -473.79)"/><path class="cls-37" d="M1042.14,552v42h-11.88V577.65h-16.2V594h-11.88V552h11.88v15.78h16.2V552Z" transform="translate(-554.56 -473.79)"/><path class="cls-38" d="M1083.06,580.65h-23.64c1,3.3,3.78,5.22,8,5.22a10.42,10.42,0,0,0,7.5-2.82l6,6.24c-3.12,3.48-7.68,5.28-13.86,5.28-11.58,0-19.08-7.14-19.08-16.86s7.62-16.74,17.88-16.74c9.6,0,17.4,6.12,17.4,16.86C1083.24,578.67,1083.12,579.75,1083.06,580.65Zm-23.82-6h13.32a6.76,6.76,0,0,0-13.32,0Z" transform="translate(-554.56 -473.79)"/><path class="cls-39" d="M1110.3,561v10.26a20.82,20.82,0,0,0-2.58-.18c-4.62,0-7.8,2.34-7.8,8V594h-11.4V561.51h10.86v3.9C1101.72,562.47,1105.5,561,1110.3,561Z" transform="translate(-554.56 -473.79)"/><path class="cls-40" d="M1147.74,580.65H1124.1c1,3.3,3.78,5.22,8,5.22a10.42,10.42,0,0,0,7.5-2.82l6,6.24c-3.12,3.48-7.68,5.28-13.86,5.28-11.58,0-19.08-7.14-19.08-16.86s7.62-16.74,17.88-16.74c9.6,0,17.4,6.12,17.4,16.86C1147.92,578.67,1147.8,579.75,1147.74,580.65Zm-23.82-6h13.32a6.76,6.76,0,0,0-13.32,0Z" transform="translate(-554.56 -473.79)"/><path class="cls-41" d="M1165,555.69c0,1.68-.24,3-1.92,6.9l-3.84,8.76h-7.14l2.82-9.78a6.16,6.16,0,0,1-3.54-5.88,6.81,6.81,0,0,1,13.62,0Z" transform="translate(-554.56 -473.79)"/><path class="cls-42" d="M1166.64,591.21l3.42-7.8a22.81,22.81,0,0,0,11.34,3c3.84,0,5.1-.84,5.1-2.22,0-4.38-19.2.6-19.2-12.42,0-6.12,5.64-10.8,15.84-10.8,4.56,0,9.6,1,12.84,2.76l-3.42,7.74a19.06,19.06,0,0,0-9.36-2.4c-3.84,0-5.22,1.08-5.22,2.28,0,4.5,19.14-.36,19.14,12.54,0,6-5.52,10.68-16.08,10.68C1175.52,594.57,1169.82,593.19,1166.64,591.21Z" transform="translate(-554.56 -473.79)"/><path class="cls-43" d="M1273.37,561.51,1261.79,594h-11l-6.12-17.7-6.36,17.7h-11l-11.58-32.52h10.8l6.66,19.68,6.9-19.68h9.72l6.72,19.86,6.9-19.86Z" transform="translate(-554.56 -473.79)"/><path class="cls-44" d="M1311.47,575.43V594h-11.4V577.29c0-4.68-2-6.66-5.34-6.66-3.66,0-6.48,2.28-6.48,7.68V594h-11.4V549.51h11.4v15A14.09,14.09,0,0,1,1298,561C1305.65,561,1311.47,565.35,1311.47,575.43Z" transform="translate(-554.56 -473.79)"/><path class="cls-45" d="M1352.27,561.51l-14,33.84c-3.42,8.4-8.22,10.86-14.64,10.86-3.42,0-7.26-1.14-9.42-2.94l4-8a7.74,7.74,0,0,0,5,1.92,4.4,4.4,0,0,0,4.44-2.76l-13.92-32.94h11.7l8,19.86,8-19.86Z" transform="translate(-554.56 -473.79)"/><path class="cls-46" d="M1351.32,587.79a6.84,6.84,0,0,1,13.68,0,6.84,6.84,0,0,1-13.68,0Z" transform="translate(-554.56 -473.79)"/></svg>