<svg id="Layer_1" data-name="Layer 1" xmlns="http://www.w3.org/2000/svg" xmlns:xlink="http://www.w3.org/1999/xlink" viewBox="0 0 834.56 714.52"><defs><style>.cls-1,.cls-8{fill:#fff;}.cls-2{fill:url(#linear-gradient);}.cls-3{fill:url(#linear-gradient-2);}.cls-4{fill:url(#linear-gradient-3);}.cls-5{fill:url(#linear-gradient-4);}.cls-6{fill:url(#linear-gradient-5);}.cls-7,.cls-8{opacity:0.6;}</style><linearGradient id="linear-gradient" x1="379.11" y1="96.62" x2="857.58" y2="540.6" gradientUnits="userSpaceOnUse"><stop offset="0" stop-color="#858585"/><stop offset="0.57" stop-color="#242424" stop-opacity="0"/></linearGradient><linearGradient id="linear-gradient-2" x1="85.84" y1="412.67" x2="564.32" y2="856.65" xlink:href="#linear-gradient"/><linearGradient id="linear-gradient-3" x1="232.7" y1="254.41" x2="711.17" y2="698.39" xlink:href="#linear-gradient"/><linearGradient id="linear-gradient-4" x1="347.46" y1="130.73" x2="825.93" y2="574.71" xlink:href="#linear-gradient"/><linearGradient id="linear-gradient-5" x1="4.49" y1="500.35" x2="482.96" y2="944.33" xlink:href="#linear-gradient"/></defs><title>logo-faded</title><path class="cls-1" d="M401.14,266.36l-4.85,6.11,0,0-90,113.45a71.54,71.54,0,0,1-23.84-47c-.05-1-.11-1.9-.23-3a79.22,79.22,0,0,0-29.87-55.18,80,80,0,1,0,12.88,112.39l-6.11-4.85a72.21,72.21,0,1,1,15.36-51.4c0,.89.11,1.81.2,2.84a1,1,0,0,1,0,.17,0,0,0,0,1,0,0,79.26,79.26,0,0,0,26.72,52.21L179.43,546l.09.11h9.77L307.61,396.93A80.06,80.06,0,0,0,417,381.81C444.45,347.28,435.68,293.8,401.14,266.36ZM410.91,377a72.28,72.28,0,0,1-98.45,13.85l89.7-113.13C428.39,303.58,434,347.85,410.91,377Z" transform="translate(-122.72 -151.32)"/><path class="cls-2" d="M499.27,259.83l2.18.58a34.3,34.3,0,0,0,8.88,1.16A34.81,34.81,0,0,0,523.47,259a34.62,34.62,0,0,0,14.58,16.58l2,1.13,2-1.13A34.66,34.66,0,0,0,556.52,259a34.76,34.76,0,0,0,13.14,2.58,34.32,34.32,0,0,0,8.9-1.17l2.18-.58.58-2.18A34.54,34.54,0,0,0,540.63,215l-.62-.36-.62.36a34.54,34.54,0,0,0-40.69,42.7ZM540,267.57a26.84,26.84,0,0,1-9.64-12.37A33.73,33.73,0,0,0,540,244.79a33.79,33.79,0,0,0,9.64,10.42A26.89,26.89,0,0,1,540,267.57Zm-11.42-21.92a26.83,26.83,0,0,1,6.53-17.5,34.7,34.7,0,0,0,.87,6.63,26.74,26.74,0,0,1-6.67,11.17c-.23.23-.46.44-.69.65C528.6,246.28,528.58,246,528.58,245.65Zm22.82,1c-.23-.22-.47-.43-.69-.65A26.73,26.73,0,0,1,544,234.77a34.74,34.74,0,0,0,.87-6.62,26.84,26.84,0,0,1,6.53,17.5C551.42,246,551.4,246.29,551.39,246.6Zm22.89,6.77a26.68,26.68,0,0,1-15.57-1.92,34.24,34.24,0,0,0,.51-5.81,34.66,34.66,0,0,0-9.35-23.6,26.72,26.72,0,0,1,24.41,31.32Zm-61.13-23.58a26.84,26.84,0,0,1,17-7.76,34.65,34.65,0,0,0-9.36,23.62,34.26,34.26,0,0,0,.51,5.78,27.05,27.05,0,0,1-15.56,1.94A26.82,26.82,0,0,1,513.15,229.79Z" transform="translate(-122.72 -151.32)"/><path class="cls-3" d="M580.74,820.18l-2.18-.58a34.6,34.6,0,0,0-22,1.42A34.66,34.66,0,0,0,542,804.43l-2-1.13-2,1.13A34.62,34.62,0,0,0,523.47,821a34.69,34.69,0,0,0-22-1.42l-2.18.58-.58,2.18a34.53,34.53,0,0,0,40.69,42.7l.62.36.62-.36a34.54,34.54,0,0,0,40.69-42.7ZM540,812.43a26.89,26.89,0,0,1,9.64,12.37A33.53,33.53,0,0,0,540,835.21a33.55,33.55,0,0,0-9.64-10.41A26.86,26.86,0,0,1,540,812.43Zm11.42,21.93a26.83,26.83,0,0,1-6.53,17.49,34.74,34.74,0,0,0-.87-6.62,26.73,26.73,0,0,1,6.67-11.18c.23-.23.46-.44.69-.65C551.4,833.72,551.42,834,551.42,834.36Zm-22.82-1c.23.22.47.43.69.65A26.74,26.74,0,0,1,536,845.23a34.7,34.7,0,0,0-.87,6.63,26.83,26.83,0,0,1-6.53-17.5C528.58,834,528.6,833.72,528.61,833.4Zm-22.88-6.77a27.06,27.06,0,0,1,15.56,1.94,34.28,34.28,0,0,0-.51,5.79A34.64,34.64,0,0,0,530.14,858a26.74,26.74,0,0,1-24.42-31.35Zm61.13,23.58a26.87,26.87,0,0,1-17,7.75,34.66,34.66,0,0,0,9.35-23.6,34.25,34.25,0,0,0-.51-5.81,26.76,26.76,0,0,1,15.57-1.92A26.87,26.87,0,0,1,566.86,850.21Z" transform="translate(-122.72 -151.32)"/><path class="cls-4" d="M645.87,648.18l2.18-.58.58-2.18a89.4,89.4,0,0,0,1.66-38.57,131.26,131.26,0,0,0,112.84-65.34l1.13-2-1.13-2a131.15,131.15,0,0,0-112.86-65.38,89.53,89.53,0,0,0-1.65-38.53l-.58-2.18-2.18-.58a89.37,89.37,0,0,0-38.57-1.67A131.28,131.28,0,0,0,542,316.42l-2-1.13-2,1.13a131.15,131.15,0,0,0-65.38,112.86,89.46,89.46,0,0,0-38.53,1.65l-2.18.58-.58,2.18a89.38,89.38,0,0,0-1.67,38.57A131.28,131.28,0,0,0,316.86,537.6l-1.13,2,1.13,2a131.16,131.16,0,0,0,112.87,65.38,89.51,89.51,0,0,0,1.65,38.53l.58,2.18,2.18.58a88.75,88.75,0,0,0,38.57,1.65A131.26,131.26,0,0,0,538,762.69l2,1.13,2-1.13a131.15,131.15,0,0,0,65.38-112.88,88.9,88.9,0,0,0,38.53-1.63Zm-4.22-7a81.77,81.77,0,0,1-34.55.66,130.67,130.67,0,0,0-11.77-47,130.65,130.65,0,0,0,47,11.76A81.68,81.68,0,0,1,641.65,641.2Zm-84.87-95c1.74.1,3.47.16,5.21.16a90.05,90.05,0,0,0,22.07-2.76,81.35,81.35,0,0,1,56.29,55.09A123.16,123.16,0,0,1,589,582.87,131.11,131.11,0,0,0,556.78,546.17Zm13.08,23.22a123.22,123.22,0,0,1-13.59-13.58A123,123,0,0,1,569.86,569.39Zm-13.1-36.47A131.3,131.3,0,0,0,589,496.2a123.15,123.15,0,0,1,51.32-15.8A81.29,81.29,0,0,1,584,535.51,89.89,89.89,0,0,0,556.77,532.92Zm-.52-9.64a123,123,0,0,1,13.6-13.6A123.18,123.18,0,0,1,556.25,523.28Zm-9.63-.51A90,90,0,0,0,544,495.5a81.36,81.36,0,0,1,55.09-56.3,123.16,123.16,0,0,1-15.79,51.3A131.11,131.11,0,0,0,546.62,522.77Zm-13.26,0a131.3,131.3,0,0,0-36.71-32.24,123.14,123.14,0,0,1-15.8-51.32A81.33,81.33,0,0,1,536,495.5,89.87,89.87,0,0,0,533.37,522.78Zm-9.64.51a123,123,0,0,1-13.59-13.59A123.19,123.19,0,0,1,523.73,523.29Zm-.51,9.64a90,90,0,0,0-27.28,2.61,81.37,81.37,0,0,1-56.29-55.1A123.16,123.16,0,0,1,491,496.23,131.11,131.11,0,0,0,523.22,532.93ZM518,546.35c1.75,0,3.51-.06,5.27-.16A131.32,131.32,0,0,0,491,582.9a123.15,123.15,0,0,1-51.32,15.8,81.33,81.33,0,0,1,56.27-55.1A90,90,0,0,0,518,546.35Zm5.78,9.48a123,123,0,0,1-13.58,13.59A123.21,123.21,0,0,1,523.74,555.83Zm9.64.51a90,90,0,0,0,2.6,27.27,81.36,81.36,0,0,1-55.1,56.29,123.15,123.15,0,0,1,15.8-51.31A131.11,131.11,0,0,0,533.38,556.33Zm13.26,0a131.32,131.32,0,0,0,36.71,32.24,123.15,123.15,0,0,1,15.8,51.32A81.32,81.32,0,0,1,544,583.61,89.86,89.86,0,0,0,546.64,556.32ZM649.9,480a123.34,123.34,0,0,1,105.34,59.53A123.45,123.45,0,0,1,649.9,599.05l-1.33,0a89.13,89.13,0,0,0-52.29-59.49A89.07,89.07,0,0,0,648.55,480Zm-8.25-42.11a81.78,81.78,0,0,1,.66,34.54,130.67,130.67,0,0,0-47,11.77,130.66,130.66,0,0,0,11.76-47A81.56,81.56,0,0,1,641.65,437.91Zm-161.18-8.25A123.35,123.35,0,0,1,540,324.32,123.46,123.46,0,0,1,599.5,429.66c0,.44,0,.89,0,1.33A89.13,89.13,0,0,0,540,483.26,89.13,89.13,0,0,0,480.48,431C480.48,430.55,480.46,430.1,480.46,429.66Zm-42.11,8.25a81.74,81.74,0,0,1,34.54-.66,130.67,130.67,0,0,0,11.77,47,130.65,130.65,0,0,0-47-11.76A81.66,81.66,0,0,1,438.35,437.91ZM430.1,599.09a123.35,123.35,0,0,1-105.34-59.53A123.46,123.46,0,0,1,430.1,480l1.33,0a89.13,89.13,0,0,0,52.28,59.5,89.11,89.11,0,0,0-52.26,59.5Zm8.25,42.11a81.76,81.76,0,0,1-.66-34.55,130.67,130.67,0,0,0,47-11.77,130.65,130.65,0,0,0-11.76,47A81.68,81.68,0,0,1,438.36,641.2Zm161.18,8.25A123.34,123.34,0,0,1,540,754.78,123.45,123.45,0,0,1,480.5,649.45c0-.45,0-.9,0-1.35A89,89,0,0,0,540,595.84a89,89,0,0,0,59.5,52.23C599.52,648.53,599.54,649,599.54,649.45Z" transform="translate(-122.72 -151.32)"/><path class="cls-5" d="M926.83,686.62a80,80,0,0,0-112.38,12.87l6.11,4.85a72.21,72.21,0,1,1-15.36,51.4c0-.89-.12-1.82-.21-2.84v-.13l0-.22h0a79.25,79.25,0,0,0-27.62-52.84L899.09,544.16h0l-120.68-152A79.29,79.29,0,0,0,805.19,340h0l0-.4v-.08c.08-.92.16-1.86.2-2.78l0-.17a72.17,72.17,0,0,1,128.38-38.16,72.18,72.18,0,0,1-113,89.8l-6.11,4.85a79.45,79.45,0,0,0,53.53,29.71,81.23,81.23,0,0,0,9.25.53A80,80,0,1,0,797.7,335.9h0c0,.05,0,.1,0,.15-.1,1-.16,2-.2,2.83h0v0A71.5,71.5,0,0,1,773.55,386L679,266.85l-3.09,2.57h0c-1,.77-1.9,1.56-2.82,2.36l-.08.07h0a80,80,0,0,0,43.55,139.68,81.31,81.31,0,0,0,9.25.53A79.3,79.3,0,0,0,772.3,397l117,147.36L771.23,695a80,80,0,0,0-98.52,125.72h0l.15.12c.9.78,1.82,1.56,2.76,2.31l.06-.07,3.14,2.5,93.7-119.7a71.57,71.57,0,0,1,24.7,47.78c.05.95.11,1.9.23,3.06a80,80,0,0,0,79.46,72.54,81.68,81.68,0,0,0,9.27-.53,80,80,0,0,0,40.65-142.09ZM669.1,377a72.28,72.28,0,0,1,8.72-99l89.63,112.92A72.27,72.27,0,0,1,669.1,377Zm-.25,338.63a72.27,72.27,0,0,1,97.56-14.45L677.53,814.56A72.28,72.28,0,0,1,668.84,715.6Z" transform="translate(-122.72 -151.32)"/><path class="cls-6" d="M417.27,710.74A80,80,0,0,0,308,695.53L189.29,546.16h-9.77L301.88,700.39A79.32,79.32,0,0,0,275,753c-.08.91-.16,1.84-.19,2.63,0,.1,0,.19,0,.3a72.16,72.16,0,1,1-15.34-51.64l6.11-4.85a80,80,0,1,0-71.73,129.22,80.27,80.27,0,0,0,9.27.53,80,80,0,0,0,79.44-72.35l0-.4c.1-1,.16-1.92.22-3a71.49,71.49,0,0,1,24-47L397.5,820.72l0,0,4,5.06c16.73-13.29,30.13-34.92,32.56-56.15A79.47,79.47,0,0,0,417.27,710.74Zm9.08,58c-1.9,16.62-11.47,33.71-23.83,45.77L312.85,701.65a72.18,72.18,0,0,1,113.5,67.07Z" transform="translate(-122.72 -151.32)"/><g class="cls-7"><path class="cls-1" d="M704.14,151.32h1.69V173h13.39v1.53H704.14Z" transform="translate(-122.72 -151.32)"/><path class="cls-1" d="M743.6,173v1.53h-16V151.32h15.54v1.53H729.25V162h12.39v1.5H729.25V173Z" transform="translate(-122.72 -151.32)"/><path class="cls-1" d="M768.16,168H754.67l-3,6.54h-1.83l10.7-23.25h1.69L773,174.57h-1.83Zm-.63-1.43-6.11-13.42-6.08,13.42Z" transform="translate(-122.72 -151.32)"/><path class="cls-1" d="M782.88,152.85v9.93h12.39v1.53H782.88v10.26h-1.69V151.32h15.55v1.53Z" transform="translate(-122.72 -151.32)"/></g><path class="cls-8" d="M315.73,437.1c-2.08,0-4.18-.09-6.24-.26l.08-1a74.42,74.42,0,0,0,12.05,0l.08,1C319.74,437,317.73,437.1,315.73,437.1Zm18-2.21-.24-1A72.68,72.68,0,0,0,344.94,430l.4.92A73.62,73.62,0,0,1,333.77,434.88Zm-36.32-.06a73.61,73.61,0,0,1-11.55-4l.4-.92a72.68,72.68,0,0,0,11.39,3.93Zm58.65-9.69-.55-.84a73.52,73.52,0,0,0,9.52-7.39l.68.74A74.49,74.49,0,0,1,356.09,425.13ZM275.17,425a74.5,74.5,0,0,1-9.63-7.52l.68-.73a73.42,73.42,0,0,0,9.5,7.42ZM374,408.67l-.79-.62A73.34,73.34,0,0,0,379.87,398l.88.48A74.28,74.28,0,0,1,374,408.67Zm-116.76-.19a74.2,74.2,0,0,1-6.68-10.23l.88-.48a73.27,73.27,0,0,0,6.59,10.1Zm128.41-21.18-.95-.33a72.64,72.64,0,0,0,3-11.68l1,.17A73.72,73.72,0,0,1,385.69,387.29Zm-140-.25a73.69,73.69,0,0,1-3-11.85l1-.16a72.78,72.78,0,0,0,2.94,11.69Zm144-23.77h-1v-.17a73.8,73.8,0,0,0-1-12l1-.16a74.75,74.75,0,0,1,1,12.18Zm-147-.26h-1a74.75,74.75,0,0,1,1-12.18l1,.16A73.8,73.8,0,0,0,242.74,363ZM384.8,339.4a72.73,72.73,0,0,0-4.85-11l.88-.48a73.76,73.76,0,0,1,4.91,11.19Zm-138.1-.08-.95-.33a73.81,73.81,0,0,1,4.92-11.18l.88.48A72.78,72.78,0,0,0,246.7,339.32Zm126.65-21a73.67,73.67,0,0,0-8.17-8.87l.68-.74a74.68,74.68,0,0,1,8.28,9Zm-115.19-.06-.79-.62a74.53,74.53,0,0,1,8.28-9l.68.74A73.6,73.6,0,0,0,258.16,318.22ZM355.68,302a73.06,73.06,0,0,0-10.59-5.75l.4-.92a74,74,0,0,1,10.73,5.83Zm-79.83,0-.55-.84A74,74,0,0,1,286,295.3l.4.92A73,73,0,0,0,275.85,302Zm57.84-9.63a73.07,73.07,0,0,0-11.89-2l.08-1a74.14,74.14,0,0,1,12.05,2Zm-35.83,0-.24-1a74.08,74.08,0,0,1,12.05-2l.08,1A73,73,0,0,0,297.86,292.31Z" transform="translate(-122.72 -151.32)"/><path class="cls-8" d="M365,270.38l-.81-.59,7.09-9.68.81.59ZM379.16,251l-.81-.59,7.09-9.68.81.59Zm14.19-19.36-.81-.59,7.09-9.68.81.59Zm14.19-19.36-.81-.59,7.09-9.68.81.59Zm14.19-19.36-.81-.59,7.09-9.68.81.59Zm14.19-19.36-.81-.59,7.09-9.68.81.59Z" transform="translate(-122.72 -151.32)"/><path class="cls-8" d="M685,162.61H673v-1h12Zm-24,0H649v-1h12Zm-24,0H625v-1h12Zm-24,0H601v-1h12Zm-24,0H577v-1h12Zm-24,0H553v-1h12Zm-24,0H529v-1h12Zm-24,0H505v-1h12Zm-24,0H481v-1h12Zm-24,0H457v-1h12Z" transform="translate(-122.72 -151.32)"/></svg>