<svg id="Layer_1" data-name="Layer 1" xmlns="http://www.w3.org/2000/svg" xmlns:xlink="http://www.w3.org/1999/xlink" viewBox="0 0 907.19 204.05"><defs><style>.cls-1{fill:url(#linear-gradient);}.cls-2{fill:url(#linear-gradient-2);}.cls-3{fill:url(#linear-gradient-3);}.cls-4{fill:url(#linear-gradient-4);}.cls-5{fill:url(#linear-gradient-5);}.cls-6{fill:url(#linear-gradient-6);}.cls-7{fill:url(#linear-gradient-7);}.cls-8{fill:url(#linear-gradient-8);}.cls-9{fill:url(#linear-gradient-9);}.cls-10{fill:url(#linear-gradient-10);}.cls-11{fill:url(#linear-gradient-11);}.cls-12{fill:url(#linear-gradient-12);}.cls-13{fill:url(#linear-gradient-13);}.cls-14{fill:url(#linear-gradient-14);}.cls-15{fill:url(#linear-gradient-15);}.cls-16{fill:url(#linear-gradient-16);}.cls-17{fill:url(#linear-gradient-17);}.cls-18{fill:url(#linear-gradient-18);}.cls-19{fill:url(#linear-gradient-19);}.cls-20{fill:url(#linear-gradient-20);}.cls-21{fill:url(#linear-gradient-21);}.cls-22{fill:url(#linear-gradient-22);}.cls-23{fill:url(#linear-gradient-23);}.cls-24{fill:url(#linear-gradient-24);}.cls-25{fill:url(#linear-gradient-25);}.cls-26{fill:url(#linear-gradient-26);}.cls-27{fill:#fff;}</style><linearGradient id="linear-gradient" x1="42.81" y1="561.2" x2="91.15" y2="530.43" gradientUnits="userSpaceOnUse"><stop offset="0" stop-color="#f8f1c4"/><stop offset="1" stop-color="#f7bc66"/></linearGradient><linearGradient id="linear-gradient-2" x1="39.42" y1="555.87" x2="87.76" y2="525.11" xlink:href="#linear-gradient"/><linearGradient id="linear-gradient-3" x1="42.22" y1="560.27" x2="90.56" y2="529.5" xlink:href="#linear-gradient"/><linearGradient id="linear-gradient-4" x1="128.51" y1="695.87" x2="176.85" y2="665.1" xlink:href="#linear-gradient"/><linearGradient id="linear-gradient-5" x1="125.12" y1="690.54" x2="173.46" y2="659.78" xlink:href="#linear-gradient"/><linearGradient id="linear-gradient-6" x1="125.71" y1="691.47" x2="174.06" y2="660.71" xlink:href="#linear-gradient"/><linearGradient id="linear-gradient-7" x1="68.32" y1="601.28" x2="116.66" y2="570.52" xlink:href="#linear-gradient"/><linearGradient id="linear-gradient-8" x1="81.19" y1="621.52" x2="129.54" y2="590.75" xlink:href="#linear-gradient"/><linearGradient id="linear-gradient-9" x1="93.81" y1="641.35" x2="142.16" y2="610.59" xlink:href="#linear-gradient"/><linearGradient id="linear-gradient-10" x1="96.07" y1="644.89" x2="144.41" y2="614.13" xlink:href="#linear-gradient"/><linearGradient id="linear-gradient-11" x1="99.48" y1="650.26" x2="147.83" y2="619.5" xlink:href="#linear-gradient"/><linearGradient id="linear-gradient-12" x1="86.61" y1="630.02" x2="134.95" y2="599.26" xlink:href="#linear-gradient"/><linearGradient id="linear-gradient-13" x1="73.99" y1="610.19" x2="122.33" y2="579.43" xlink:href="#linear-gradient"/><linearGradient id="linear-gradient-14" x1="71.73" y1="606.65" x2="120.08" y2="575.89" xlink:href="#linear-gradient"/><linearGradient id="linear-gradient-15" x1="128.52" y1="695.89" x2="176.86" y2="665.12" xlink:href="#linear-gradient"/><linearGradient id="linear-gradient-16" x1="144.06" y1="720.31" x2="192.41" y2="689.55" xlink:href="#linear-gradient"/><linearGradient id="linear-gradient-17" x1="38.45" y1="254.23" x2="86.79" y2="223.46" xlink:href="#linear-gradient"/><linearGradient id="linear-gradient-18" x1="71.26" y1="605.91" x2="119.61" y2="575.14" xlink:href="#linear-gradient"/><linearGradient id="linear-gradient-19" x1="86.51" y1="629.88" x2="134.86" y2="599.11" xlink:href="#linear-gradient"/><linearGradient id="linear-gradient-20" x1="-0.44" y1="193.11" x2="47.9" y2="162.35" xlink:href="#linear-gradient"/><linearGradient id="linear-gradient-21" x1="98.53" y1="648.76" x2="146.87" y2="617.99" xlink:href="#linear-gradient"/><linearGradient id="linear-gradient-22" x1="83.22" y1="624.7" x2="131.56" y2="593.93" xlink:href="#linear-gradient"/><linearGradient id="linear-gradient-23" x1="81.53" y1="622.05" x2="129.88" y2="591.28" gradientTransform="translate(394.11 39.32) rotate(38.47)" xlink:href="#linear-gradient"/><linearGradient id="linear-gradient-24" x1="41.16" y1="558.62" x2="89.51" y2="527.85" xlink:href="#linear-gradient"/><linearGradient id="linear-gradient-25" x1="25.62" y1="534.2" x2="73.97" y2="503.43" xlink:href="#linear-gradient"/><linearGradient id="linear-gradient-26" x1="-44.72" y1="123.54" x2="3.63" y2="92.77" xlink:href="#linear-gradient"/></defs><title>logo-and-type</title><path class="cls-1" d="M227.82,453.06a10.82,10.82,0,0,1-10.46-13.62l.18-.68.68-.18a10.87,10.87,0,0,1,10.45,2.8h0a10.86,10.86,0,0,1,2.8,10.45l-.18.68-.68.18A10.75,10.75,0,0,1,227.82,453.06Zm-8.26-12.28a8.38,8.38,0,0,0,9.71,9.71,8.38,8.38,0,0,0-9.71-9.71Z" transform="translate(-87.88 -438.21)"/><path class="cls-2" d="M209.24,453.05a10.74,10.74,0,0,1-2.78-.36l-.68-.18-.18-.68a10.82,10.82,0,0,1,13.25-13.25l.68.18.18.68a10.82,10.82,0,0,1-10.47,13.61Zm-1.44-2.57a8.38,8.38,0,0,0,9.71-9.71,8.38,8.38,0,0,0-9.71,9.71Z" transform="translate(-87.88 -438.21)"/><path class="cls-3" d="M218.54,457.79l-.61-.35a10.82,10.82,0,0,1,0-18.74l.61-.35.61.35a10.82,10.82,0,0,1,0,18.74Zm0-16.59a8.38,8.38,0,0,0,0,13.73,8.38,8.38,0,0,0,0-13.73Z" transform="translate(-87.88 -438.21)"/><path class="cls-4" d="M221,642.26a10.78,10.78,0,0,1-2.78-.36l-.68-.18-.18-.68a10.82,10.82,0,0,1,13.25-13.25l.68.18.18.68a10.86,10.86,0,0,1-2.8,10.45h0A10.86,10.86,0,0,1,221,642.26Zm-1.44-2.57a8.38,8.38,0,0,0,9.71-9.71,8.38,8.38,0,0,0-9.71,9.71Z" transform="translate(-87.88 -438.21)"/><path class="cls-5" d="M216.06,642.26a10.82,10.82,0,0,1-10.47-13.62l.18-.68.68-.18A10.82,10.82,0,0,1,219.71,641l-.18.68-.68.18A10.74,10.74,0,0,1,216.06,642.26ZM207.8,630a8.38,8.38,0,0,0,9.71,9.71A8.38,8.38,0,0,0,207.8,630Z" transform="translate(-87.88 -438.21)"/><path class="cls-6" d="M218.54,642.13l-.61-.35a10.82,10.82,0,0,1,0-18.74l.61-.35.61.35a10.82,10.82,0,0,1,0,18.74Zm0-16.59a8.38,8.38,0,0,0,0,13.73,8.38,8.38,0,0,0,0-13.73Z" transform="translate(-87.88 -438.21)"/><path class="cls-7" d="M218.53,541.51l-.61-.35a41,41,0,0,1,0-70.93l.61-.35.61.35a41,41,0,0,1,0,70.92Zm0-68.8a38.51,38.51,0,0,0,0,66,38.52,38.52,0,0,0,0-66Z" transform="translate(-87.88 -438.21)"/><path class="cls-8" d="M225.42,542.22a27.89,27.89,0,0,1-7.2-.94l-.68-.18-.18-.68a28,28,0,0,1,34.33-34.33l.68.18.18.68A28.14,28.14,0,0,1,245.29,534h0A28.14,28.14,0,0,1,225.42,542.22Zm-5.88-3.13a25.59,25.59,0,0,0,30.82-30.82,25.59,25.59,0,0,0-30.82,30.82Z" transform="translate(-87.88 -438.21)"/><path class="cls-9" d="M252.94,561.17a41.11,41.11,0,0,1-35.47-20.46l-.35-.61.35-.61a41,41,0,0,1,70.93,0l.35.61-.35.61A41.1,41.1,0,0,1,252.94,561.17Zm-33-21.08a38.52,38.52,0,0,0,66,0,38.51,38.51,0,0,0-66,0Z" transform="translate(-87.88 -438.21)"/><path class="cls-10" d="M244.48,575.05a28,28,0,0,1-27.13-35.27l.18-.68.68-.18a28,28,0,0,1,34.33,34.33l-.18.68-.68.18A27.91,27.91,0,0,1,244.48,575.05Zm-24.94-34a25.59,25.59,0,0,0,30.82,30.82,25.59,25.59,0,0,0-30.82-30.82Z" transform="translate(-87.88 -438.21)"/><path class="cls-11" d="M218.53,610.32l-.61-.35a41,41,0,0,1,0-70.92l.61-.35.61.35a41,41,0,0,1,0,70.93Zm0-68.8a38.52,38.52,0,0,0,0,66,38.51,38.51,0,0,0,0-66Z" transform="translate(-87.88 -438.21)"/><path class="cls-12" d="M192.6,575.06a27.87,27.87,0,0,1-7.22-.95l-.68-.18-.18-.68a28,28,0,0,1,34.33-34.33l.68.18.18.68a28,28,0,0,1-27.11,35.28Zm-5.89-3.13a25.59,25.59,0,0,0,30.82-30.82,25.59,25.59,0,0,0-30.82,30.82Z" transform="translate(-87.88 -438.21)"/><path class="cls-13" d="M184.12,561.18a41.07,41.07,0,0,1-35.46-20.47l-.35-.61.35-.61a41,41,0,0,1,70.92,0l.35.61-.35.61A41.08,41.08,0,0,1,184.12,561.18Zm-33-21.08a38.51,38.51,0,0,0,66,0,38.52,38.52,0,0,0-66,0Z" transform="translate(-87.88 -438.21)"/><path class="cls-14" d="M211.63,542.22a28,28,0,0,1-27.11-35.28l.18-.68.68-.18a28.12,28.12,0,0,1,27.07,7.26h0a28.13,28.13,0,0,1,7.26,27.07l-.18.68-.68.18A27.87,27.87,0,0,1,211.63,542.22Zm-24.93-34a25.59,25.59,0,0,0,30.82,30.82,25.69,25.69,0,0,0-6.8-24h0A25.68,25.68,0,0,0,186.71,508.27Z" transform="translate(-87.88 -438.21)"/><path class="cls-15" d="M261,628.89a25,25,0,1,1,40.51-22c0,.34.06.65.07,1l-2.43.24,1.22-.12-1.22.12V608c0-.26,0-.54-.06-.8A22.6,22.6,0,1,0,262.52,627Z" transform="translate(-87.88 -438.21)"/><path class="cls-16" d="M324,630.8a25,25,0,0,1-24.88-22.71c0-.38-.06-.69-.07-1l2.42-.29v.07c0,.36,0,.64.07.92a22.6,22.6,0,1,0,4.81-16.09l-1.91-1.52a25,25,0,1,1,22.46,40.46A25.57,25.57,0,0,1,324,630.8Z" transform="translate(-87.88 -438.21)"/><polygon class="cls-17" points="174.13 191.44 172.21 189.92 241.57 101.41 243.09 103.34 174.13 191.44"/><path class="cls-18" d="M276.7,500.17a25.46,25.46,0,0,1-2.9-.17,25,25,0,0,1-12.73-44.49l1.52,1.91a22.6,22.6,0,1,0,36.56,19.85c0-.29,0-.56.06-.82v-.12l2.43.21v0c0,.29,0,.58-.06.87a25,25,0,0,1-24.89,22.71Z" transform="translate(-87.88 -438.21)"/><path class="cls-19" d="M324.2,503.7a25.44,25.44,0,0,1-2.9-.17,24.88,24.88,0,0,1-16.76-9.3l1.91-1.52a22.62,22.62,0,1,0-4.8-16.17l0,.13c0,.23,0,.51-.05.78l0,.15-2.42-.35c0-.26,0-.57.06-.88a25,25,0,1,1,25,27.32Z" transform="translate(-87.88 -438.21)"/><polygon class="cls-20" points="241.18 104.85 172.29 18.06 174.17 16.5 243.1 103.33 241.18 104.85"/><path class="cls-21" d="M175.18,629.71l-1.52-1.91c4.73-3.76,8.6-9.95,9.29-15.95a22.6,22.6,0,1,0-45-4.72c0,.29,0,.56-.06.83l0,.19-2.42-.35c0-.25,0-.56.06-.86a25,25,0,1,1,49.82,5.19C184.61,618.78,180.42,625.55,175.18,629.71Z" transform="translate(-87.88 -438.21)"/><path class="cls-22" d="M113,630.8a25.56,25.56,0,0,1-2.9-.17,25,25,0,1,1,22.46-40.46l-1.91,1.52a22.62,22.62,0,1,0,4.8,16.17c0-.36.05-.64.07-.92l1.22,0,1.22.09c0,.34,0,.65-.07,1v.13A25,25,0,0,1,113,630.8Z" transform="translate(-87.88 -438.21)"/><rect class="cls-23" x="139.49" y="529.48" width="2.44" height="109.81" transform="translate(-420.9 -223.8) rotate(-38.47)"/><path class="cls-24" d="M160.39,500.16a25,25,0,0,1-24.91-22.65c0-.34-.06-.65-.07-1l2.43-.24-1.22.12,1.22-.12v.14c0,.26,0,.54.06.8a22.6,22.6,0,0,0,40.2,11.93c7.75-9.76,5.18-25-4.58-32.72l1.52-1.91c10.81,8.59,13.56,25.34,5,36.15A25,25,0,0,1,160.39,500.16Z" transform="translate(-87.88 -438.21)"/><path class="cls-25" d="M112.89,503.68a25,25,0,1,1,25-27.37c0,.38.06.69.07,1l-2.43.21c0-.37,0-.63-.07-.9a22.59,22.59,0,1,0-4.81,16.09l1.91,1.52A25,25,0,0,1,112.89,503.68Zm22.6-26.12s0,0,0,0l1.22-.09Z" transform="translate(-87.88 -438.21)"/><polygon class="cls-26" points="19.64 105.47 17.73 103.95 86.61 17.07 88.49 18.64 19.64 105.47"/><path class="cls-27" d="M404.09,597v-1.72l3.61-1.38q3.61-1.38,4.56-3.35a12.78,12.78,0,0,0,.95-5.42V495.34a12.4,12.4,0,0,0-1-5.5q-1-2.06-4.47-3.27l-3.61-1.38v-1.72h43.86v1.72l-3.1,1.38a8,8,0,0,0-4.47,3.35,11.38,11.38,0,0,0-1.2,5.59v98h26.49q6.36,0,9.37-3.1a33.06,33.06,0,0,0,5.76-8.94l6.71-14.45h1.72L487.68,597Z" transform="translate(-87.88 -438.21)"/><path class="cls-27" d="M518.29,599.58q-10,0-16.77-5.68t-6.79-16.34q0-8.08,8.26-14.88t26-10.23q2.75-.52,6.19-1.12l7.22-1.29V536.45q0-11.69-2.84-16.43t-8.86-4.73a8.37,8.37,0,0,0-6.54,2.67q-2.41,2.67-3.1,9.2l-.34,1.89q-.35,7.4-3.61,10.84a10.7,10.7,0,0,1-8.08,3.44,10.36,10.36,0,0,1-7.4-2.75,9.66,9.66,0,0,1-2.92-7.4,16,16,0,0,1,4.9-11.87,30.64,30.64,0,0,1,13-7.22,61.24,61.24,0,0,1,17.54-2.41q15.31,0,23.65,7.48t8.34,24.34v38q0,7.74,7.22,7.74h3.78l1.55,1.38a25.4,25.4,0,0,1-7.14,6.36q-3.87,2.23-10.92,2.24-7.57,0-12-3.53a16.47,16.47,0,0,1-5.76-9.37,71.73,71.73,0,0,1-10.58,9.37Q526.89,599.58,518.29,599.58Zm10.49-10.49a13.3,13.3,0,0,0,6.45-1.63,46,46,0,0,0,7.14-5.07v-28.9l-3.44.69q-1.72.35-4,.69a26.34,26.34,0,0,0-12.64,7q-4.73,4.9-4.73,13.16,0,7.05,3.27,10.58A10.39,10.39,0,0,0,528.79,589.08Z" transform="translate(-87.88 -438.21)"/><path class="cls-27" d="M613.23,597v-1.72l3.1-1A8.24,8.24,0,0,0,621,591a10.9,10.9,0,0,0,1.2-5.5q.17-10.32.17-20.81V516.07q0-10.4-.17-20.73a13.41,13.41,0,0,0-.95-5.5q-.95-2.06-4.21-3.27l-3.78-1.38v-1.72h83.25l1.2,28.55H696L686.16,494a17.13,17.13,0,0,0-4-5.16,9.3,9.3,0,0,0-6.19-1.89H648.32q-.17,12.21-.17,24.94v25.28H666q4,0,5.85-1.72a18.06,18.06,0,0,0,3.61-5l3.61-6.54h1.72V554h-1.72l-3.78-6.54a24.41,24.41,0,0,0-3.53-5q-1.8-1.89-5.76-1.89H648.15v23q0,10.92.17,21.41,0,6.71,6.54,8.77l5.16,1.55V597Z" transform="translate(-87.88 -438.21)"/><path class="cls-27" d="M701.47,597v-1.72l2.06-.69q6.19-2.06,6.19-8.6V494a8.55,8.55,0,0,0-1.38-5.25,8.42,8.42,0,0,0-4.82-2.67l-2.24-.52v-1.72l31.48-7.4,2.06,1.55-.69,24.08v58.82q0,6.37.09,12.64t.09,12.47a10.2,10.2,0,0,0,1.38,5.59,8.14,8.14,0,0,0,4.64,3.18l2.24.52V597Z" transform="translate(-87.88 -438.21)"/><path class="cls-27" d="M789.88,511.68q11.18,0,19.09,4.56a31.13,31.13,0,0,1,12.13,12.38,37,37,0,0,1,4.21,17.8q0,1.89-.17,3.87a15.37,15.37,0,0,1-.69,3.53H773.19q.17,18.58,6.62,26.75T799,588.74q8.6,0,13.93-2.75a34,34,0,0,0,10-8.08l1.72,1.55a39.55,39.55,0,0,1-14.19,14.79q-8.86,5.33-21.24,5.33a43.94,43.94,0,0,1-21.67-5.25,37,37,0,0,1-14.79-15q-5.33-9.8-5.33-23.39,0-14.1,6.19-24a41.65,41.65,0,0,1,15.91-15A42.87,42.87,0,0,1,789.88,511.68Zm-.52,3.44a12.67,12.67,0,0,0-8.51,3q-3.53,3-5.5,10.66t-2.15,21.59H802.6q1.72-18.75-1.38-27T789.36,515.12Z" transform="translate(-87.88 -438.21)"/><path class="cls-27" d="M861.6,599.58A29,29,0,0,1,849.3,597a19,19,0,0,1-8.77-8.34q-3.18-5.76-3-15.22l.52-44.2q0-4-1.38-5.68a7.51,7.51,0,0,0-4.3-2.41l-2.06-.69v-1.72l30.79-6,1.72,1.72-.86,24.42v41.45q0,5.51,3.18,8.08a12.29,12.29,0,0,0,8,2.58,25,25,0,0,0,8.6-1.38,30.83,30.83,0,0,0,7.57-4.13L890,529.4q0-4-1.2-5.59t-4.47-2.32l-1.72-.52v-1.72l30.1-6.54,1.72,1.72-.52,24.42v46.61a13.36,13.36,0,0,0,1,5.85q1,2.06,4.47,3.44l1.72.52V597L891,598.72l-1.55-10.15a61.26,61.26,0,0,1-12.3,7.83A35.61,35.61,0,0,1,861.6,599.58Z" transform="translate(-87.88 -438.21)"/><path class="cls-27" d="M924.55,597v-1.72l2.58-.69a8,8,0,0,0,4.73-3.1,9.92,9.92,0,0,0,1.29-5.33V532.32q0-3.78-1.29-5.59t-4.73-2.49l-2.58-.69v-1.72l29.58-10,1.72,1.72,1.55,14.79v1.38a36.15,36.15,0,0,1,6.28-8.86,35.21,35.21,0,0,1,8.6-6.62,19.45,19.45,0,0,1,9.37-2.58q6.53,0,10,3.61a12.69,12.69,0,0,1,3.44,9.12q0,5.85-3.35,9a11.21,11.21,0,0,1-8,3.18q-7.22,0-12.73-7.22l-.34-.34a5.73,5.73,0,0,0-4-2.67q-2.24-.26-4.13,2.15a13,13,0,0,0-2.84,3.7,44.67,44.67,0,0,0-2.15,4.9v48q0,6.88,6,8.6l5.5,1.55V597Z" transform="translate(-87.88 -438.21)"/></svg>