<svg id="Layer_1" data-name="Layer 1" xmlns="http://www.w3.org/2000/svg" xmlns:xlink="http://www.w3.org/1999/xlink" viewBox="0 0 1080 1080"><defs><style>.cls-1,.cls-3{opacity:0.6;}.cls-1{fill:url(#radial-gradient);}.cls-2,.cls-3{fill:#fff;}.cls-4{fill:none;stroke:#fff;stroke-miterlimit:10;stroke-dasharray:12;}.cls-5{fill:#a7a9ac;}</style><radialGradient id="radial-gradient" cx="548" cy="551" r="754.46" gradientUnits="userSpaceOnUse"><stop offset="0" stop-color="#858585"/><stop offset="0.57" stop-color="#242424" stop-opacity="0"/></radialGradient></defs><title>logo-flora</title><path class="cls-1" d="M493.74,253.55l2.47.66a39,39,0,0,0,10.08,1.32,39.54,39.54,0,0,0,14.93-2.93,39.33,39.33,0,0,0,16.56,18.84l2.22,1.28,2.22-1.28a39.37,39.37,0,0,0,16.54-18.83,39.49,39.49,0,0,0,14.92,2.93,39,39,0,0,0,10.11-1.33l2.47-.66.66-2.47a39.24,39.24,0,0,0-46.22-48.5l-.71-.41-.71.41a39.24,39.24,0,0,0-46.22,48.51Zm76.77-34.12a30.52,30.52,0,0,1,8.44,26.78A30.31,30.31,0,0,1,561.25,244a38.89,38.89,0,0,0,.58-6.6,39.37,39.37,0,0,0-10.62-26.81A30.49,30.49,0,0,1,570.51,219.43Zm-24.95-1.86A30.49,30.49,0,0,1,553,237.45c0,.36,0,.72,0,1.08-.26-.25-.53-.49-.79-.74a30.36,30.36,0,0,1-7.58-12.7A39.48,39.48,0,0,0,545.56,217.57ZM540,236.47a38.38,38.38,0,0,0,11,11.84,30.54,30.54,0,0,1-11,14,30.49,30.49,0,0,1-11-14,38.31,38.31,0,0,0,11-11.84Zm-5.56-18.9a39.42,39.42,0,0,0,1,7.53,30.38,30.38,0,0,1-7.58,12.69c-.26.26-.52.5-.79.74,0-.36,0-.72,0-1.08A30.48,30.48,0,0,1,534.44,217.57Zm-24.94,1.86a30.49,30.49,0,0,1,19.3-8.81,39.36,39.36,0,0,0-10.63,26.83,38.91,38.91,0,0,0,.58,6.57,30.73,30.73,0,0,1-17.68,2.2A30.47,30.47,0,0,1,509.5,219.43Z"/><path class="cls-1" d="M586.28,890.07l-2.47-.66a39.3,39.3,0,0,0-25,1.61,39.37,39.37,0,0,0-16.54-18.83L540,870.9l-2.22,1.28A39.33,39.33,0,0,0,521.23,891a39.41,39.41,0,0,0-25-1.61l-2.47.66-.66,2.47A39.23,39.23,0,0,0,539.3,941l.71.41.71-.41a39.24,39.24,0,0,0,46.22-48.5ZM509.5,924.18a30.47,30.47,0,0,1-8.43-26.79,30.73,30.73,0,0,1,17.68,2.2,38.94,38.94,0,0,0-.58,6.58A39.35,39.35,0,0,0,528.81,933,30.48,30.48,0,0,1,509.5,924.18ZM534.44,926A30.47,30.47,0,0,1,527,906.17c0-.36,0-.72,0-1.08.26.25.53.48.79.74a30.38,30.38,0,0,1,7.58,12.69A39.42,39.42,0,0,0,534.44,926Zm5.56-18.9a38.11,38.11,0,0,0-11-11.83,30.51,30.51,0,0,1,11-14.05,30.54,30.54,0,0,1,11,14.05,38.09,38.09,0,0,0-11,11.83Zm5.56,18.9a39.48,39.48,0,0,0-1-7.52,30.36,30.36,0,0,1,7.58-12.7c.26-.26.52-.5.79-.74,0,.36,0,.72,0,1.09A30.48,30.48,0,0,1,545.56,926Zm24.95-1.86a30.52,30.52,0,0,1-19.29,8.8,39.37,39.37,0,0,0,10.62-26.81,38.92,38.92,0,0,0-.58-6.6,30.4,30.4,0,0,1,17.69-2.18A30.52,30.52,0,0,1,570.51,924.18Z"/><path class="cls-2" d="M662.73,694l.66-2.47a101.55,101.55,0,0,0,1.89-43.82,149.1,149.1,0,0,0,128.18-74.22l1.28-2.22-1.28-2.22a149,149,0,0,0-128.21-74.27A101.7,101.7,0,0,0,663.39,451l-.66-2.47-2.47-.66A101.52,101.52,0,0,0,616.45,446a149.12,149.12,0,0,0-74.22-128.18L540,316.54l-2.22,1.28A149,149,0,0,0,463.52,446a101.62,101.62,0,0,0-43.77,1.88l-2.47.66-.66,2.47a101.53,101.53,0,0,0-1.89,43.81,149.12,149.12,0,0,0-128.18,74.22l-1.28,2.22,1.28,2.22a149,149,0,0,0,128.21,74.27,101.68,101.68,0,0,0,1.87,43.77l.66,2.47,2.47.66a100.81,100.81,0,0,0,43.81,1.87,149.1,149.1,0,0,0,74.22,128.2L540,826l2.22-1.28a149,149,0,0,0,74.27-128.23,101,101,0,0,0,43.77-1.85Zm.58-190.34,1.53,0a140.11,140.11,0,0,1,119.66,67.63,140.23,140.23,0,0,1-119.66,67.6l-1.51,0a101.24,101.24,0,0,0-59.39-67.58,101.18,101.18,0,0,0,59.38-67.59Zm-89.38,101.5a140,140,0,0,1-15.44-15.43A139.69,139.69,0,0,1,573.92,605.19Zm-15.46-52.38a139.69,139.69,0,0,1,15.44-15.45A139.93,139.93,0,0,1,558.46,552.82Zm37.22-30.76A139.89,139.89,0,0,1,654,504.11,92.34,92.34,0,0,1,590,566.71a102.11,102.11,0,0,0-31-2.94A149.15,149.15,0,0,0,595.68,522.06Zm-6.47-6.47a148.93,148.93,0,0,0-41.69,36.65,102.19,102.19,0,0,0-3-31,92.42,92.42,0,0,1,62.58-63.95A139.9,139.9,0,0,1,589.21,515.58Zm-41.67,74.76A149.17,149.17,0,0,0,589.24,627a139.89,139.89,0,0,1,17.95,58.29,92.37,92.37,0,0,1-62.59-63.93A102.07,102.07,0,0,0,547.54,590.35Zm11.53-11.53c2,.11,3.94.18,5.91.18A102.29,102.29,0,0,0,590,575.86,92.41,92.41,0,0,1,654,638.44a139.9,139.9,0,0,1-58.28-17.94A148.93,148.93,0,0,0,559.06,578.82Zm96.4-123a92.9,92.9,0,0,1,.75,39.24,148.43,148.43,0,0,0-53.39,13.37,148.42,148.42,0,0,0,13.36-53.37A92.65,92.65,0,0,1,655.46,455.83ZM540,326.81a140.24,140.24,0,0,1,67.6,119.66c0,.5,0,1,0,1.51A101.25,101.25,0,0,0,540,507.36,101.24,101.24,0,0,0,472.4,448c0-.51,0-1,0-1.52A140.11,140.11,0,0,1,540,326.81Zm-7.53,225.44a149.15,149.15,0,0,0-41.7-36.63,139.88,139.88,0,0,1-17.95-58.29,92.39,92.39,0,0,1,62.6,63.93A102.09,102.09,0,0,0,532.47,552.25Zm-10.94,37.54a139.7,139.7,0,0,1-15.43,15.44A140,140,0,0,1,521.53,589.78Zm0-37a139.73,139.73,0,0,1-15.44-15.43A140,140,0,0,1,521.51,552.83Zm-.57,11a102.22,102.22,0,0,0-31,3A92.44,92.44,0,0,1,426,504.15a139.9,139.9,0,0,1,58.28,17.94A148.93,148.93,0,0,0,520.94,563.78Zm-31,12.11A102.17,102.17,0,0,0,515,579c2,0,4-.07,6-.18a149.17,149.17,0,0,0-36.63,41.7A139.89,139.89,0,0,1,426,638.48,92.38,92.38,0,0,1,490,575.89Zm.84,51.11a148.93,148.93,0,0,0,41.69-36.65,102.2,102.2,0,0,0,3,31,92.42,92.42,0,0,1-62.59,63.95A139.9,139.9,0,0,1,490.79,627ZM424.54,455.84a92.85,92.85,0,0,1,39.24-.75,148.44,148.44,0,0,0,13.37,53.39,148.41,148.41,0,0,0-53.37-13.36A92.76,92.76,0,0,1,424.54,455.84ZM416.7,638.9l-1.53,0A140.12,140.12,0,0,1,295.51,571.3a140.24,140.24,0,0,1,119.66-67.6l1.51,0a101.24,101.24,0,0,0,59.39,67.58A101.22,101.22,0,0,0,416.7,638.9Zm7.85,47.86a92.88,92.88,0,0,1-.75-39.24,148.43,148.43,0,0,0,53.39-13.37,148.41,148.41,0,0,0-13.36,53.37A92.78,92.78,0,0,1,424.54,686.76ZM540,815.79a140.23,140.23,0,0,1-67.6-119.66c0-.51,0-1,0-1.53A101.15,101.15,0,0,0,540,635.24a101.09,101.09,0,0,0,67.59,59.33c0,.52,0,1,0,1.56A140.11,140.11,0,0,1,540,815.79Zm115.46-129a92.88,92.88,0,0,1-39.24.75,148.43,148.43,0,0,0-13.37-53.39,148.41,148.41,0,0,0,53.37,13.36A92.78,92.78,0,0,1,655.47,686.76Z"/><path class="cls-1" d="M979.42,738.36A90.86,90.86,0,0,0,851.76,753l6.94,5.51a82,82,0,1,1-17.45,58.39c0-1-.13-2.06-.23-3.22v-.14l0-.25h0a90,90,0,0,0-31.37-60L947.9,576.54,810.82,403.84a90.07,90.07,0,0,0,30.42-59.23h0l0-.45v-.09c.09-1,.18-2.12.23-3.15l0-.19a82,82,0,0,1,145.83-43.34A82,82,0,0,1,859,399.4L852,404.91a90.25,90.25,0,0,0,60.8,33.75,92.27,92.27,0,0,0,10.5.6A90.88,90.88,0,1,0,832.73,340h0c0,.06,0,.12,0,.17-.11,1.15-.18,2.27-.23,3.21h0v0a81.22,81.22,0,0,1-27.17,53.5L697.85,261.53l-3.51,2.92h0c-1.1.87-2.16,1.77-3.2,2.68l-.09.08h0a90.85,90.85,0,0,0,49.47,158.66,92.36,92.36,0,0,0,10.51.6,90.08,90.08,0,0,0,52.87-17.1L936.76,576.75,802.66,747.86A90.85,90.85,0,0,0,690.75,890.67h0l.17.13c1,.89,2.06,1.77,3.14,2.62l.06-.08,3.57,2.84,106.44-136a81.29,81.29,0,0,1,28.06,54.27c.06,1.07.13,2.15.26,3.47a90.86,90.86,0,0,0,90.27,82.4,92.78,92.78,0,0,0,10.53-.6,90.86,90.86,0,0,0,46.18-161.41ZM686.64,386.61a82.11,82.11,0,0,1,9.91-112.46L798.37,402.41A82.09,82.09,0,0,1,686.64,386.61Zm9.58,497.08a82,82,0,0,1,101-128.83Z"/><path class="cls-3" d="M533.21,654.94l.09-1.13a84.54,84.54,0,0,0,13.69,0l.09,1.13c-2.34.2-4.72.29-7.09.3S535.45,655.12,533.21,654.94Zm-26.84-6.73.45-1a82.56,82.56,0,0,0,13,4.42l-.28,1.1A83.63,83.63,0,0,1,506.37,648.21Zm54.12,3.31a82.56,82.56,0,0,0,12.94-4.47l.46,1a83.62,83.62,0,0,1-13.12,4.53Zm-77.3-18.42.77-.84a83.51,83.51,0,0,0,10.82,8.4l-.62,1A84.61,84.61,0,0,1,483.19,633.11Zm102.27,7.41a83.4,83.4,0,0,0,10.79-8.43l.77.83a84.63,84.63,0,0,1-10.93,8.55ZM466.15,611.32l1-.54a83.31,83.31,0,0,0,7.52,11.44l-.89.7A84.38,84.38,0,0,1,466.15,611.32ZM605.51,622A83.23,83.23,0,0,0,613,610.53l1,.54a84.29,84.29,0,0,1-7.59,11.62Zm-148.4-36.81,1.12-.19a82.51,82.51,0,0,0,3.38,13.27l-1.07.37A83.74,83.74,0,0,1,457.11,585.19ZM618.48,598a82.67,82.67,0,0,0,3.33-13.28l1.12.18a83.7,83.7,0,0,1-3.38,13.46ZM455.95,571.16a84.92,84.92,0,0,1,1.13-13.83l1.12.19a83.83,83.83,0,0,0-1.12,13.65v.2h-1.14Zm165.84-13.74,1.12-.19a84.91,84.91,0,0,1,1.15,13.83h-1.14A83.83,83.83,0,0,0,621.79,557.41ZM460.47,543.87a83.79,83.79,0,0,1,5.58-12.71l1,.54a82.62,82.62,0,0,0-5.51,12.54ZM612.9,531.62l1-.54a83.85,83.85,0,0,1,5.59,12.69l-1.07.37A82.68,82.68,0,0,0,612.9,531.62ZM473.66,519.54a84.83,84.83,0,0,1,9.4-10.21l.77.84a83.68,83.68,0,0,0-9.28,10.07Zm122.46-9.43.77-.84a84.66,84.66,0,0,1,9.41,10.2l-.9.7A83.61,83.61,0,0,0,596.12,510.11ZM494,500.79a84.09,84.09,0,0,1,12.19-6.62l.46,1a83,83,0,0,0-12,6.53Zm79.26-5.61.46-1a84,84,0,0,1,12.21,6.61l-.62,1A82.91,82.91,0,0,0,573.26,495.18Zm-53.94-5.52A84.22,84.22,0,0,1,533,487.39l.09,1.13a83,83,0,0,0-13.5,2.25Zm27.47-1.15.09-1.13a84.15,84.15,0,0,1,13.69,2.26l-.28,1.1A82.92,82.92,0,0,0,546.8,488.51Z"/><line class="cls-4" x1="409.98" y1="212.49" x2="540" y2="468.07"/><line class="cls-4" x1="399.76" y1="209.09" x2="246.42" y2="209.09"/><path class="cls-5" d="M80.46,197.14v11.28H94.53v1.74H80.46v11.66H78.54V195.41H96.19v1.74Z"/><path class="cls-5" d="M106.88,195.41h1.92v24.68H124v1.74H106.88Z"/><path class="cls-5" d="M130.43,208.61c0-7.66,5.85-13.4,13.73-13.4s13.74,5.7,13.74,13.4S152,222,144.16,222,130.43,216.27,130.43,208.61Zm25.51,0a11.79,11.79,0,1,0-11.77,11.62A11.41,11.41,0,0,0,155.93,208.61Z"/><path class="cls-5" d="M187.45,221.82l-6.3-8.83a18.65,18.65,0,0,1-2.57.19H171v8.64h-1.92V195.41h9.47c6.64,0,10.64,3.32,10.64,8.91a8.1,8.1,0,0,1-6.19,8.26l6.6,9.24Zm-8.87-10.34c5.66,0,8.68-2.64,8.68-7.17s-3-7.17-8.68-7.17H171v14.34Z"/><path class="cls-5" d="M217.15,214.39H201.83l-3.36,7.43H196.4l12.15-26.41h1.92l12.15,26.41h-2.08Zm-.72-1.62-6.94-15.24-6.91,15.24Z"/><path class="cls-1" d="M400.59,758.09a90.88,90.88,0,0,0-124.13-17.28L141.62,571.14,276,401.62A90.95,90.95,0,0,0,400.3,384.45c31.16-39.22,21.2-100-18-131.14l-5.51,6.94,0,0L274.61,389.14a81.26,81.26,0,0,1-27.08-53.42c-.06-1.08-.13-2.16-.26-3.46a90,90,0,0,0-33.93-62.68A90.83,90.83,0,1,0,228,397.24L221,391.73a82,82,0,1,1,17.45-58.39c0,1,.12,2.06.23,3.23a1.12,1.12,0,0,1,0,.19,0,0,0,0,1,0,0,90,90,0,0,0,30.35,59.31L130.42,571l.1.12,139,175.19A90.1,90.1,0,0,0,239,806.15c-.09,1-.18,2.09-.22,3,0,.11,0,.22,0,.34a82,82,0,1,1-17.43-58.66l6.94-5.51a90.86,90.86,0,1,0-81.48,146.78,91.18,91.18,0,0,0,10.53.6,90.85,90.85,0,0,0,90.24-82.18l0-.45c.11-1.1.18-2.18.25-3.37A81.21,81.21,0,0,1,275,753.27L378.13,883l0,0,4.57,5.75c19-15.1,34.23-39.67,37-63.78A90.27,90.27,0,0,0,400.59,758.09ZM383.42,266.16c29.8,29.42,36.2,79.71,9.94,112.78a82.1,82.1,0,0,1-111.83,15.73ZM410.9,823.95c-2.16,18.88-13,38.29-27.07,52L282,747.76A82,82,0,0,1,410.9,823.95Z"/></svg>