<svg id="Layer_1" data-name="Layer 1" xmlns="http://www.w3.org/2000/svg" xmlns:xlink="http://www.w3.org/1999/xlink" viewBox="0 0 834.71 651.63"><defs><style>.cls-1{fill:url(#linear-gradient);}.cls-2{fill:url(#linear-gradient-2);}.cls-3{fill:url(#linear-gradient-3);}.cls-4{fill:url(#linear-gradient-4);}.cls-5{fill:url(#linear-gradient-5);}</style><linearGradient id="linear-gradient" x1="200.08" y1="-145.2" x2="764.08" y2="312.8" gradientUnits="userSpaceOnUse"><stop offset="0" stop-color="#f8f1c4"/><stop offset="1" stop-color="#f7bc66"/></linearGradient><linearGradient id="linear-gradient-2" x1="-88.31" y1="209.93" x2="475.69" y2="667.93" xlink:href="#linear-gradient"/><linearGradient id="linear-gradient-3" x1="56.11" y1="32.09" x2="620.11" y2="490.09" xlink:href="#linear-gradient"/><linearGradient id="linear-gradient-4" x1="153.93" y1="-88.37" x2="717.93" y2="369.63" xlink:href="#linear-gradient"/><linearGradient id="linear-gradient-5" x1="-48.36" y1="160.24" x2="515.64" y2="618.24" xlink:href="#linear-gradient"/></defs><title>logo-start-gold</title><path class="cls-1" d="M376.55,45.66l2.18.58a34.3,34.3,0,0,0,8.88,1.16,34.81,34.81,0,0,0,13.14-2.57,34.62,34.62,0,0,0,14.58,16.58l2,1.13,2-1.13A34.66,34.66,0,0,0,433.8,44.83a34.76,34.76,0,0,0,13.14,2.58,34.32,34.32,0,0,0,8.9-1.17l2.18-.58.58-2.18A34.54,34.54,0,0,0,417.91.83l-.62-.36-.62.36A34.54,34.54,0,0,0,376,43.53Zm40.73,7.74A26.84,26.84,0,0,1,407.64,41a33.73,33.73,0,0,0,9.64-10.41A33.79,33.79,0,0,0,426.92,41,26.89,26.89,0,0,1,417.28,53.4ZM405.86,31.48A26.83,26.83,0,0,1,412.39,14a34.7,34.7,0,0,0,.87,6.63,26.74,26.74,0,0,1-6.67,11.17c-.23.23-.46.44-.69.65,0-.32,0-.6,0-1Zm22.82,1c-.23-.22-.47-.43-.69-.65a26.73,26.73,0,0,1-6.71-11.23,34.74,34.74,0,0,0,.87-6.62,26.84,26.84,0,0,1,6.53,17.5c0,.35,0,.64,0,.95Zm22.89,6.77A26.68,26.68,0,0,1,436,37.33a34.24,34.24,0,0,0,.51-5.81,34.66,34.66,0,0,0-9.35-23.6,26.72,26.72,0,0,1,24.41,31.32ZM390.44,15.67a26.84,26.84,0,0,1,17-7.76,34.65,34.65,0,0,0-9.36,23.62,34.26,34.26,0,0,0,.51,5.78A27,27,0,0,1,383,39.25a26.82,26.82,0,0,1,7.4-23.63Z" transform="translate(0.07 -0.04)"/><path class="cls-2" d="M458,606l-2.18-.58a34.6,34.6,0,0,0-22,1.42,34.66,34.66,0,0,0-14.56-16.59l-2-1.13-2,1.13a34.62,34.62,0,0,0-14.53,16.57,34.69,34.69,0,0,0-22-1.42l-2.18.58-.58,2.18a34.53,34.53,0,0,0,40.69,42.7l.62.36.62-.36a34.54,34.54,0,0,0,40.69-42.7Zm-40.74-7.75a26.89,26.89,0,0,1,9.64,12.37A33.53,33.53,0,0,0,417.28,621a33.55,33.55,0,0,0-9.64-10.41A26.86,26.86,0,0,1,417.28,598.26Zm11.42,21.93a26.83,26.83,0,0,1-6.53,17.49,34.74,34.74,0,0,0-.87-6.62A26.73,26.73,0,0,1,428,619.88c.23-.23.46-.44.69-.65C428.68,619.55,428.7,619.83,428.7,620.19Zm-22.82-1c.23.22.47.43.69.65a26.74,26.74,0,0,1,6.71,11.22,34.7,34.7,0,0,0-.87,6.63,26.83,26.83,0,0,1-6.53-17.5c0-.36,0-.64,0-1ZM383,612.42a27.06,27.06,0,0,1,15.56,1.94,34.28,34.28,0,0,0-.51,5.79,34.64,34.64,0,0,0,9.37,23.68A26.74,26.74,0,0,1,383,612.48ZM444.13,636a26.87,26.87,0,0,1-17,7.75,34.66,34.66,0,0,0,9.35-23.6,34.25,34.25,0,0,0-.51-5.81,26.76,26.76,0,0,1,15.57-1.92,26.87,26.87,0,0,1-7.4,23.62Z" transform="translate(0.07 -0.04)"/><path class="cls-3" d="M523.15,434l2.18-.58.58-2.18a89.4,89.4,0,0,0,1.66-38.57,131.26,131.26,0,0,0,112.84-65.34l1.13-2-1.13-2A131.15,131.15,0,0,0,527.55,258a89.53,89.53,0,0,0-1.65-38.53l-.58-2.18-2.18-.58A89.37,89.37,0,0,0,484.57,215a131.28,131.28,0,0,0-65.29-112.75l-2-1.13-2,1.13A131.15,131.15,0,0,0,349.9,215.11a89.46,89.46,0,0,0-38.53,1.65l-2.18.58-.58,2.18a89.38,89.38,0,0,0-1.67,38.57,131.28,131.28,0,0,0-112.8,65.34l-1.13,2,1.13,2A131.16,131.16,0,0,0,307,392.81a89.51,89.51,0,0,0,1.65,38.53l.58,2.18,2.18.58A88.75,88.75,0,0,0,350,435.75a131.26,131.26,0,0,0,65.29,112.77l2,1.13,2-1.13a131.15,131.15,0,0,0,65.38-112.88A88.9,88.9,0,0,0,523.19,434Zm-4.22-7a81.77,81.77,0,0,1-34.55.66,130.67,130.67,0,0,0-11.77-47,130.65,130.65,0,0,0,47,11.76,81.68,81.68,0,0,1-.68,34.6Zm-84.87-95c1.74.1,3.47.16,5.21.16a90.05,90.05,0,0,0,22.07-2.76,81.35,81.35,0,0,1,56.29,55.09,123.16,123.16,0,0,1-51.35-15.8A131.11,131.11,0,0,0,434.06,332Zm13.08,23.22a123.22,123.22,0,0,1-13.59-13.58,123,123,0,0,1,13.59,13.57ZM434,318.76A131.3,131.3,0,0,0,466.28,282a123.15,123.15,0,0,1,51.32-15.8,81.29,81.29,0,0,1-56.32,55.11,89.89,89.89,0,0,0-27.23-2.59Zm-.52-9.64a123,123,0,0,1,13.6-13.6,123.18,123.18,0,0,1-13.59,13.59Zm-9.63-.51a90,90,0,0,0-2.61-27.28A81.36,81.36,0,0,1,476.37,225a123.16,123.16,0,0,1-15.79,51.3A131.11,131.11,0,0,0,423.9,308.6Zm-13.26,0a131.3,131.3,0,0,0-36.71-32.24A123.14,123.14,0,0,1,358.12,225a81.33,81.33,0,0,1,55.16,56.28,89.87,89.87,0,0,0-2.63,27.28Zm-9.64.51a123,123,0,0,1-13.59-13.59A123.19,123.19,0,0,1,401,309.12Zm-.51,9.64a90,90,0,0,0-27.28,2.61,81.37,81.37,0,0,1-56.29-55.1,123.16,123.16,0,0,1,51.37,15.79,131.11,131.11,0,0,0,32.22,36.7Zm-5.2,13.42c1.75,0,3.51-.06,5.27-.16a131.32,131.32,0,0,0-32.27,36.71A123.15,123.15,0,0,1,317,384.53a81.33,81.33,0,0,1,56.27-55.1A90,90,0,0,0,395.28,332.18Zm5.78,9.48a123,123,0,0,1-13.58,13.59A123.21,123.21,0,0,1,401,341.66Zm9.64.51a90,90,0,0,0,2.6,27.27,81.36,81.36,0,0,1-55.1,56.29A123.15,123.15,0,0,1,374,374.42a131.11,131.11,0,0,0,36.66-32.26Zm13.26,0a131.32,131.32,0,0,0,36.71,32.24,123.15,123.15,0,0,1,15.8,51.32,81.32,81.32,0,0,1-55.19-56.29,89.86,89.86,0,0,0,2.64-27.29Zm103.22-76.34a123.34,123.34,0,0,1,105.34,59.53,123.45,123.45,0,0,1-105.34,59.52h-1.33a89.13,89.13,0,0,0-52.29-59.49,89.07,89.07,0,0,0,52.27-59.56Zm-8.25-42.11a81.78,81.78,0,0,1,.66,34.54,130.67,130.67,0,0,0-47,11.77,130.66,130.66,0,0,0,11.76-47,81.56,81.56,0,0,1,34.58.71Zm-161.18-8.25a123.35,123.35,0,0,1,59.53-105.32,123.46,123.46,0,0,1,59.5,105.34v1.33a89.13,89.13,0,0,0-59.5,52.27,89.13,89.13,0,0,0-59.52-52.26c0-.45,0-.9,0-1.34Zm-42.11,8.25a81.74,81.74,0,0,1,34.54-.66,130.67,130.67,0,0,0,11.77,47,130.65,130.65,0,0,0-47-11.76,81.66,81.66,0,0,1,.68-34.56Zm-8.26,161.2A123.35,123.35,0,0,1,202,325.39a123.46,123.46,0,0,1,105.34-59.56h1.33A89.13,89.13,0,0,0,361,325.33a89.11,89.11,0,0,0-52.26,59.5ZM315.63,427a81.76,81.76,0,0,1-.66-34.55,130.67,130.67,0,0,0,47-11.77,130.65,130.65,0,0,0-11.76,47,81.68,81.68,0,0,1-34.57-.68Zm161.18,8.25a123.34,123.34,0,0,1-59.53,105.33,123.45,123.45,0,0,1-59.5-105.33v-1.35a89,89,0,0,0,59.5-52.26,89,89,0,0,0,59.5,52.23c0,.46,0,.93,0,1.38Z" transform="translate(0.07 -0.04)"/><path class="cls-4" d="M804.11,472.45a80,80,0,0,0-112.38,12.87l6.11,4.85a72.21,72.21,0,1,1-15.36,51.4c0-.89-.12-1.82-.21-2.84v-.35h0a79.25,79.25,0,0,0-27.62-52.84L776.37,330h0L655.69,178a79.29,79.29,0,0,0,26.78-52.16h0v-.48c.08-.92.16-1.86.2-2.78v-.17A71.27,71.27,0,1,1,698.05,174l-6.11,4.85a79.45,79.45,0,0,0,53.53,29.71,81.23,81.23,0,0,0,9.25.53A80,80,0,1,0,675,121.73h0v.15c-.1,1-.16,2-.2,2.83h0a71.5,71.5,0,0,1-24,47.12L556.28,52.68l-3.09,2.57h0c-1,.77-1.9,1.56-2.82,2.36l-.08.07h0a80,80,0,0,0,43.55,139.68,81.31,81.31,0,0,0,9.25.53,79.3,79.3,0,0,0,46.49-15.06l117,147.36L648.51,480.83A80,80,0,0,0,550,606.55h0l.15.12c.9.78,1.82,1.56,2.76,2.31l.06-.07,3.14,2.5,93.7-119.7a71.57,71.57,0,0,1,24.7,47.78c0,1,.11,1.9.23,3.06a80,80,0,0,0,79.46,72.54,81.68,81.68,0,0,0,9.27-.53,80,80,0,0,0,40.65-142.09ZM546.38,162.83a72.28,72.28,0,0,1,8.72-99l89.63,112.92A72.27,72.27,0,0,1,546.38,162.83Zm-.25,338.63A72.27,72.27,0,0,1,643.69,487L554.81,600.39a72.28,72.28,0,0,1-8.69-99Z" transform="translate(0.07 -0.04)"/><path class="cls-5" d="M241,466.83a79.45,79.45,0,0,0-55.74,14.53L66.57,332,184.89,182.76a80.08,80.08,0,0,0,109.39-15.12c27.43-34.54,18.66-88-15.87-115.45l-4.85,6.11h0L183.65,171.77a71.56,71.56,0,0,1-23.84-47c0-1-.11-1.9-.23-3.06a80,80,0,1,0-17,57.22h0l-6.11-4.85a72.22,72.22,0,1,1,15.36-51.4c0,.89.12,1.82.21,2.84v.18h0a79.25,79.25,0,0,0,26.72,52.21l-122,153.93h0L179.16,486.22a79.34,79.34,0,0,0-26.88,52.61c-.08.91-.16,1.85-.19,2.63v.3a72.15,72.15,0,1,1-15.33-51.64l6.11-4.85A80,80,0,1,0,71.14,614.5a81.62,81.62,0,0,0,9.27.53,80,80,0,0,0,79.44-72.35v-.4c.09-1,.16-1.92.22-3a71.49,71.49,0,0,1,24-47l90.71,114.27h0l4,5.06c16.73-13.29,30.13-34.92,32.57-56.14A80,80,0,0,0,241,466.83Zm47.17-304a72.28,72.28,0,0,1-98.45,13.85l89.7-113.13C305.67,89.41,311.28,133.68,288.19,162.83Zm15.44,391.76c-1.91,16.62-11.47,33.7-23.83,45.77L190.13,487.48a72.18,72.18,0,0,1,113.5,67.07Z" transform="translate(0.07 -0.04)"/></svg>