<svg id="Layer_1" data-name="Layer 1" xmlns="http://www.w3.org/2000/svg" xmlns:xlink="http://www.w3.org/1999/xlink" viewBox="0 0 765.23 201.12"><defs><style>.cls-1{fill:url(#linear-gradient);}.cls-2{fill:url(#linear-gradient-2);}.cls-3{fill:url(#linear-gradient-3);}.cls-4{fill:url(#linear-gradient-4);}.cls-5{fill:url(#linear-gradient-5);}.cls-6{fill:url(#linear-gradient-6);}.cls-7{fill:url(#linear-gradient-7);}.cls-8{fill:url(#linear-gradient-8);}.cls-9{fill:url(#linear-gradient-9);}.cls-10{fill:url(#linear-gradient-10);}.cls-11{fill:url(#linear-gradient-11);}.cls-12{fill:url(#linear-gradient-12);}.cls-13{fill:url(#linear-gradient-13);}.cls-14{fill:url(#linear-gradient-14);}.cls-15{fill:url(#linear-gradient-15);}.cls-16{fill:url(#linear-gradient-16);}.cls-17{fill:url(#linear-gradient-17);}.cls-18{fill:url(#linear-gradient-18);}.cls-19{fill:url(#linear-gradient-19);}.cls-20{fill:url(#linear-gradient-20);}.cls-21{fill:url(#linear-gradient-21);}.cls-22{fill:url(#linear-gradient-22);}.cls-23{fill:url(#linear-gradient-23);}.cls-24{fill:url(#linear-gradient-24);}.cls-25{fill:url(#linear-gradient-25);}.cls-26{fill:url(#linear-gradient-26);}.cls-27{fill:url(#linear-gradient-27);}.cls-28{fill:url(#linear-gradient-28);}.cls-29{fill:url(#linear-gradient-29);}.cls-30{fill:url(#linear-gradient-30);}.cls-31{fill:url(#linear-gradient-31);}.cls-32{fill:url(#linear-gradient-32);}.cls-33{fill:url(#linear-gradient-33);}.cls-34{fill:url(#linear-gradient-34);}.cls-35{fill:url(#linear-gradient-35);}.cls-36{fill:url(#linear-gradient-36);}.cls-37{fill:url(#linear-gradient-37);}.cls-38{fill:url(#linear-gradient-38);}.cls-39{fill:url(#linear-gradient-39);}.cls-40{fill:url(#linear-gradient-40);}.cls-41{fill:url(#linear-gradient-41);}.cls-42{fill:url(#linear-gradient-42);}.cls-43{fill:url(#linear-gradient-43);}.cls-44{fill:url(#linear-gradient-44);}.cls-45{fill:url(#linear-gradient-45);}.cls-46{fill:url(#linear-gradient-46);}.cls-47{fill:url(#linear-gradient-47);}.cls-48{fill:url(#linear-gradient-48);}.cls-49{fill:url(#linear-gradient-49);}.cls-50{fill:url(#linear-gradient-50);}.cls-51{fill:url(#linear-gradient-51);}</style><linearGradient id="linear-gradient" x1="191.17" y1="495.56" x2="841.17" y2="317.56" gradientUnits="userSpaceOnUse"><stop offset="0" stop-color="#7453cb"/><stop offset="1" stop-color="#130f25"/></linearGradient><linearGradient id="linear-gradient-2" x1="195.31" y1="510.69" x2="845.31" y2="332.69" xlink:href="#linear-gradient"/><linearGradient id="linear-gradient-3" x1="197.9" y1="520.14" x2="847.9" y2="342.14" xlink:href="#linear-gradient"/><linearGradient id="linear-gradient-4" x1="199.58" y1="526.27" x2="849.58" y2="348.27" xlink:href="#linear-gradient"/><linearGradient id="linear-gradient-5" x1="204" y1="542.42" x2="854" y2="364.42" xlink:href="#linear-gradient"/><linearGradient id="linear-gradient-6" x1="206.7" y1="552.26" x2="856.7" y2="374.26" xlink:href="#linear-gradient"/><linearGradient id="linear-gradient-7" x1="208.88" y1="560.22" x2="858.88" y2="382.22" xlink:href="#linear-gradient"/><linearGradient id="linear-gradient-8" x1="213.61" y1="577.49" x2="863.61" y2="399.49" xlink:href="#linear-gradient"/><linearGradient id="linear-gradient-9" x1="215.47" y1="584.32" x2="865.47" y2="406.32" xlink:href="#linear-gradient"/><linearGradient id="linear-gradient-10" x1="219.08" y1="597.5" x2="869.08" y2="419.5" xlink:href="#linear-gradient"/><linearGradient id="linear-gradient-11" x1="219.6" y1="599.38" x2="869.6" y2="421.38" xlink:href="#linear-gradient"/><linearGradient id="linear-gradient-12" x1="220.86" y1="603.98" x2="870.86" y2="425.98" xlink:href="#linear-gradient"/><linearGradient id="linear-gradient-13" x1="224.95" y1="618.92" x2="874.95" y2="440.92" xlink:href="#linear-gradient"/><linearGradient id="linear-gradient-14" x1="201.25" y1="532.38" x2="851.25" y2="354.38" xlink:href="#linear-gradient"/><linearGradient id="linear-gradient-15" x1="203.78" y1="541.6" x2="853.78" y2="363.6" xlink:href="#linear-gradient"/><linearGradient id="linear-gradient-16" x1="204.78" y1="545.25" x2="854.78" y2="367.25" xlink:href="#linear-gradient"/><linearGradient id="linear-gradient-17" x1="210.32" y1="565.48" x2="860.32" y2="387.48" xlink:href="#linear-gradient"/><linearGradient id="linear-gradient-18" x1="213.92" y1="578.66" x2="863.92" y2="400.66" xlink:href="#linear-gradient"/><linearGradient id="linear-gradient-19" x1="215.8" y1="585.49" x2="865.8" y2="407.49" xlink:href="#linear-gradient"/><linearGradient id="linear-gradient-20" x1="219.78" y1="600.03" x2="869.78" y2="422.03" xlink:href="#linear-gradient"/><linearGradient id="linear-gradient-21" x1="221.26" y1="605.45" x2="871.26" y2="427.45" xlink:href="#linear-gradient"/><linearGradient id="linear-gradient-22" x1="223.22" y1="612.58" x2="873.25" y2="434.58" xlink:href="#linear-gradient"/><linearGradient id="linear-gradient-23" x1="225.44" y1="620.71" x2="875.44" y2="442.71" xlink:href="#linear-gradient"/><linearGradient id="linear-gradient-24" x1="229.3" y1="634.8" x2="879.3" y2="456.8" xlink:href="#linear-gradient"/><linearGradient id="linear-gradient-25" x1="231.96" y1="644.51" x2="881.96" y2="466.51" xlink:href="#linear-gradient"/><linearGradient id="linear-gradient-26" x1="233.64" y1="650.64" x2="883.64" y2="472.64" xlink:href="#linear-gradient"/><linearGradient id="linear-gradient-27" x1="238.06" y1="666.79" x2="888.06" y2="488.79" xlink:href="#linear-gradient"/><linearGradient id="linear-gradient-28" x1="241.87" y1="680.7" x2="891.87" y2="502.7" xlink:href="#linear-gradient"/><linearGradient id="linear-gradient-29" x1="244.3" y1="689.59" x2="894.3" y2="511.59" xlink:href="#linear-gradient"/><linearGradient id="linear-gradient-30" x1="244.74" y1="691.19" x2="894.74" y2="513.19" xlink:href="#linear-gradient"/><linearGradient id="linear-gradient-31" x1="248.31" y1="704.2" x2="898.31" y2="526.2" xlink:href="#linear-gradient"/><linearGradient id="linear-gradient-32" x1="250.3" y1="711.5" x2="900.3" y2="533.5" xlink:href="#linear-gradient"/><linearGradient id="linear-gradient-33" x1="252.6" y1="719.87" x2="902.6" y2="541.87" xlink:href="#linear-gradient"/><linearGradient id="linear-gradient-34" x1="224.76" y1="618.21" x2="874.76" y2="440.21" xlink:href="#linear-gradient"/><linearGradient id="linear-gradient-35" x1="226.44" y1="624.35" x2="876.44" y2="446.35" xlink:href="#linear-gradient"/><linearGradient id="linear-gradient-36" x1="230.99" y1="640.97" x2="880.99" y2="462.97" xlink:href="#linear-gradient"/><linearGradient id="linear-gradient-37" x1="232.05" y1="644.85" x2="882.05" y2="466.85" xlink:href="#linear-gradient"/><linearGradient id="linear-gradient-38" x1="234.58" y1="654.07" x2="884.58" y2="476.07" xlink:href="#linear-gradient"/><linearGradient id="linear-gradient-39" x1="238.54" y1="668.54" x2="888.54" y2="490.54" xlink:href="#linear-gradient"/><linearGradient id="linear-gradient-40" x1="238.55" y1="668.59" x2="888.55" y2="490.59" xlink:href="#linear-gradient"/><linearGradient id="linear-gradient-41" x1="242.41" y1="682.68" x2="892.41" y2="504.68" xlink:href="#linear-gradient"/><linearGradient id="linear-gradient-42" x1="246.72" y1="698.41" x2="896.72" y2="520.41" xlink:href="#linear-gradient"/><linearGradient id="linear-gradient-43" x1="246.84" y1="698.87" x2="896.84" y2="520.87" xlink:href="#linear-gradient"/><linearGradient id="linear-gradient-44" x1="249.29" y1="707.78" x2="899.29" y2="529.78" xlink:href="#linear-gradient"/><linearGradient id="linear-gradient-45" x1="252.29" y1="718.75" x2="902.29" y2="540.75" xlink:href="#linear-gradient"/><linearGradient id="linear-gradient-46" x1="255.38" y1="730.03" x2="905.38" y2="552.03" xlink:href="#linear-gradient"/><linearGradient id="linear-gradient-47" x1="257" y1="735.95" x2="907" y2="557.95" xlink:href="#linear-gradient"/><linearGradient id="linear-gradient-48" x1="258.04" y1="739.77" x2="908.04" y2="561.77" xlink:href="#linear-gradient"/><linearGradient id="linear-gradient-49" x1="259.89" y1="746.51" x2="909.89" y2="568.51" xlink:href="#linear-gradient"/><linearGradient id="linear-gradient-50" x1="263.44" y1="759.46" x2="913.44" y2="581.46" xlink:href="#linear-gradient"/><linearGradient id="linear-gradient-51" x1="267.98" y1="776.05" x2="917.98" y2="598.05" xlink:href="#linear-gradient"/></defs><title>tothenbesubmerged-mobile</title><path class="cls-1" d="M310.32,450.36H296.88v-7.92h36.6v7.92H320v34.08h-9.72Z" transform="translate(-157.38 -439.44)"/><path class="cls-2" d="M332.34,468.3c0-9.72,7.5-16.62,17.76-16.62s17.7,6.9,17.7,16.62-7.44,16.62-17.7,16.62S332.34,478,332.34,468.3Zm26,0c0-5.58-3.54-8.94-8.22-8.94s-8.28,3.36-8.28,8.94,3.6,8.94,8.28,8.94S358.32,473.88,358.32,468.3Z" transform="translate(-157.38 -439.44)"/><path class="cls-3" d="M411.84,482.88a13.37,13.37,0,0,1-7.62,2c-7.62,0-12.06-3.9-12.06-11.58V460.08h-5v-7.2h5V445h9.36v7.86h8v7.2h-8v13.14c0,2.76,1.5,4.26,4,4.26a6.31,6.31,0,0,0,3.78-1.2Z" transform="translate(-157.38 -439.44)"/><path class="cls-4" d="M450.12,466v18.48h-9.36v-17c0-5.22-2.4-7.62-6.54-7.62-4.5,0-7.74,2.76-7.74,8.7v16h-9.36V439.92h9.36v15.6a14.19,14.19,0,0,1,10.26-3.84C444.36,451.68,450.12,456.12,450.12,466Z" transform="translate(-157.38 -439.44)"/><path class="cls-5" d="M490.38,470.94H466c.9,4,4.32,6.48,9.24,6.48a10.94,10.94,0,0,0,8.1-3.12l5,5.4c-3,3.42-7.5,5.22-13.32,5.22-11.16,0-18.42-7-18.42-16.62s7.38-16.62,17.22-16.62c9.48,0,16.8,6.36,16.8,16.74C490.56,469.14,490.44,470.16,490.38,470.94Zm-24.54-5.46h15.9a8.06,8.06,0,0,0-15.9,0Z" transform="translate(-157.38 -439.44)"/><path class="cls-6" d="M529.8,466v18.48h-9.36v-17c0-5.22-2.4-7.62-6.54-7.62-4.5,0-7.74,2.76-7.74,8.7v16H496.8V452.16h8.94v3.78a14.13,14.13,0,0,1,10.68-4.26C524,451.68,529.8,456.12,529.8,466Z" transform="translate(-157.38 -439.44)"/><path class="cls-7" d="M590.4,468.3c0,10.14-7,16.62-16.08,16.62-4.32,0-7.8-1.38-10.14-4.2v3.72h-8.94V439.92h9.36v15.66c2.4-2.64,5.7-3.9,9.72-3.9C583.38,451.68,590.4,458.16,590.4,468.3Zm-9.48,0c0-5.58-3.54-8.94-8.22-8.94s-8.22,3.36-8.22,8.94,3.54,8.94,8.22,8.94S580.92,473.88,580.92,468.3Z" transform="translate(-157.38 -439.44)"/><path class="cls-8" d="M628.08,470.94H603.66c.9,4,4.32,6.48,9.24,6.48a10.94,10.94,0,0,0,8.1-3.12l5,5.4c-3,3.42-7.5,5.22-13.32,5.22-11.16,0-18.42-7-18.42-16.62s7.38-16.62,17.22-16.62c9.48,0,16.8,6.36,16.8,16.74C628.26,469.14,628.14,470.16,628.08,470.94Zm-24.54-5.46h15.9a8.06,8.06,0,0,0-15.9,0Z" transform="translate(-157.38 -439.44)"/><path class="cls-9" d="M661.74,452.88H670v7.2h-8v24.36h-9.36V460.08h-5v-7.2h5v-1.44c0-7.26,4.44-12,12.48-12a13.27,13.27,0,0,1,7.14,1.74L669.78,448a6.56,6.56,0,0,0-3.78-1.14c-2.76,0-4.26,1.5-4.26,4.68Z" transform="translate(-157.38 -439.44)"/><path class="cls-10" d="M707.22,452.16v32.28h-8.88V480.6a13.06,13.06,0,0,1-10,4.32c-8.1,0-13.8-4.56-13.8-14.52V452.16h9.36V469c0,5.4,2.4,7.8,6.54,7.8,4.32,0,7.44-2.76,7.44-8.7v-16Z" transform="translate(-157.38 -439.44)"/><path class="cls-11" d="M715.92,439.92h9.36v44.52h-9.36Z" transform="translate(-157.38 -439.44)"/><path class="cls-12" d="M734,439.92h9.36v44.52H734Z" transform="translate(-157.38 -439.44)"/><path class="cls-13" d="M784.08,452.16,769.5,486.42c-3.12,7.8-7.56,10.14-13.38,10.14-3.3,0-6.9-1.08-9-2.94l3.42-6.66a8.3,8.3,0,0,0,5.28,2c2.58,0,4-1.14,5.28-4l.12-.3-14-32.52h9.66l9.06,21.9,9.12-21.9Z" transform="translate(-157.38 -439.44)"/><path class="cls-14" d="M157.38,553.44l3.12-6.72a22.09,22.09,0,0,0,11.22,3.12c4.32,0,5.94-1.14,5.94-2.94,0-5.28-19.5.12-19.5-12.78,0-6.12,5.52-10.44,14.94-10.44,4.44,0,9.36,1,12.42,2.82l-3.12,6.66a18.53,18.53,0,0,0-9.3-2.4c-4.2,0-6,1.32-6,3,0,5.52,19.5.18,19.5,12.9,0,6-5.58,10.26-15.24,10.26C165.9,556.92,160.38,555.42,157.38,553.44Z" transform="translate(-157.38 -439.44)"/><path class="cls-15" d="M224.88,524.16v32.28H216V552.6a13.06,13.06,0,0,1-10,4.32c-8.1,0-13.8-4.56-13.8-14.52V524.16h9.36V541c0,5.4,2.4,7.8,6.54,7.8,4.32,0,7.44-2.76,7.44-8.7v-16Z" transform="translate(-157.38 -439.44)"/><path class="cls-16" d="M268.74,540.3c0,10.14-7,16.62-16.08,16.62-4.32,0-7.8-1.38-10.14-4.2v3.72h-8.94V511.92h9.36v15.66c2.4-2.64,5.7-3.9,9.72-3.9C261.72,523.68,268.74,530.16,268.74,540.3Zm-9.48,0c0-5.58-3.54-8.94-8.22-8.94s-8.22,3.36-8.22,8.94,3.54,8.94,8.22,8.94S259.26,545.88,259.26,540.3Z" transform="translate(-157.38 -439.44)"/><path class="cls-17" d="M329.52,538v18.48h-9.36v-17c0-5.22-2.34-7.62-6.12-7.62-4.2,0-7.14,2.7-7.14,8.46v16.2h-9.36v-17c0-5.22-2.22-7.62-6.12-7.62-4.14,0-7.08,2.7-7.08,8.46v16.2H275V524.16h8.94v3.72a13.07,13.07,0,0,1,10.14-4.2c4.5,0,8.34,1.74,10.62,5.28a14.52,14.52,0,0,1,11.64-5.28C324,523.68,329.52,528.12,329.52,538Z" transform="translate(-157.38 -439.44)"/><path class="cls-18" d="M369.72,542.94H345.3c.9,4,4.32,6.48,9.24,6.48a10.94,10.94,0,0,0,8.1-3.12l5,5.4c-3,3.42-7.5,5.22-13.32,5.22-11.16,0-18.42-7-18.42-16.62s7.38-16.62,17.22-16.62c9.48,0,16.8,6.36,16.8,16.74C369.9,541.14,369.78,542.16,369.72,542.94Zm-24.54-5.46h15.9a8.06,8.06,0,0,0-15.9,0Z" transform="translate(-157.38 -439.44)"/><path class="cls-19" d="M396.18,523.68v8.64c-.78-.06-1.38-.12-2.1-.12-5.16,0-8.58,2.82-8.58,9v15.24h-9.36V524.16h8.94v4.26C387.36,525.3,391.2,523.68,396.18,523.68Z" transform="translate(-157.38 -439.44)"/><path class="cls-20" d="M434.76,524.16V551c0,12-6.48,17.52-18.12,17.52-6.12,0-12.06-1.5-15.84-4.44l3.72-6.72a19.29,19.29,0,0,0,11.4,3.66c6.6,0,9.48-3,9.48-8.82v-1.38c-2.46,2.7-6,4-10.2,4-8.94,0-16.14-6.18-16.14-15.6s7.2-15.6,16.14-15.6c4.5,0,8.22,1.5,10.68,4.62v-4.14Zm-9.24,15.12c0-4.74-3.54-7.92-8.46-7.92s-8.52,3.18-8.52,7.92,3.6,7.92,8.52,7.92S425.52,544,425.52,539.28Z" transform="translate(-157.38 -439.44)"/><path class="cls-21" d="M474.9,542.94H450.48c.9,4,4.32,6.48,9.24,6.48a10.94,10.94,0,0,0,8.1-3.12l5,5.4c-3,3.42-7.5,5.22-13.32,5.22-11.16,0-18.42-7-18.42-16.62s7.38-16.62,17.22-16.62c9.48,0,16.8,6.36,16.8,16.74C475.08,541.14,475,542.16,474.9,542.94Zm-24.54-5.46h15.9a8.06,8.06,0,0,0-15.9,0Z" transform="translate(-157.38 -439.44)"/><path class="cls-22" d="M514.2,511.92v44.52h-8.94v-3.72c-2.34,2.82-5.76,4.2-10.08,4.2-9.12,0-16.14-6.48-16.14-16.62s7-16.62,16.14-16.62c4,0,7.32,1.26,9.66,3.9V511.92ZM505,540.3c0-5.58-3.6-8.94-8.22-8.94s-8.28,3.36-8.28,8.94,3.6,8.94,8.28,8.94S505,545.88,505,540.3Z" transform="translate(-157.38 -439.44)"/><path class="cls-23" d="M538.68,514.44c0-2.94,2.34-5.22,5.82-5.22s5.82,2.16,5.82,5c0,3.12-2.34,5.4-5.82,5.4S538.68,517.38,538.68,514.44Zm1.14,9.72h9.36v32.28h-9.36Z" transform="translate(-157.38 -439.44)"/><path class="cls-24" d="M590.88,538v18.48h-9.36v-17c0-5.22-2.4-7.62-6.54-7.62-4.5,0-7.74,2.76-7.74,8.7v16h-9.36V524.16h8.94v3.78a14.13,14.13,0,0,1,10.68-4.26C585.12,523.68,590.88,528.12,590.88,538Z" transform="translate(-157.38 -439.44)"/><path class="cls-25" d="M637.14,554.88a13.37,13.37,0,0,1-7.62,2c-7.62,0-12.06-3.9-12.06-11.58V532.08h-5v-7.2h5V517h9.36v7.86h8v7.2h-8v13.14c0,2.76,1.5,4.26,4,4.26a6.31,6.31,0,0,0,3.78-1.2Z" transform="translate(-157.38 -439.44)"/><path class="cls-26" d="M675.42,538v18.48h-9.36v-17c0-5.22-2.4-7.62-6.54-7.62-4.5,0-7.74,2.76-7.74,8.7v16h-9.36V511.92h9.36v15.6A14.19,14.19,0,0,1,662,523.68C669.66,523.68,675.42,528.12,675.42,538Z" transform="translate(-157.38 -439.44)"/><path class="cls-27" d="M715.68,542.94H691.26c.9,4,4.32,6.48,9.24,6.48a10.94,10.94,0,0,0,8.1-3.12l5,5.4c-3,3.42-7.5,5.22-13.32,5.22-11.16,0-18.42-7-18.42-16.62s7.38-16.62,17.22-16.62c9.48,0,16.8,6.36,16.8,16.74C715.86,541.14,715.74,542.16,715.68,542.94Zm-24.54-5.46H707a8.06,8.06,0,0,0-15.9,0Z" transform="translate(-157.38 -439.44)"/><path class="cls-28" d="M736.68,540.3c0-9.72,7.5-16.62,18-16.62,6.78,0,12.12,2.94,14.46,8.22l-7.26,3.9a8,8,0,0,0-7.26-4.44c-4.74,0-8.46,3.3-8.46,8.94s3.72,8.94,8.46,8.94a7.94,7.94,0,0,0,7.26-4.44l7.26,4c-2.34,5.16-7.68,8.16-14.46,8.16C744.18,556.92,736.68,550,736.68,540.3Z" transform="translate(-157.38 -439.44)"/><path class="cls-29" d="M771.72,540.3c0-9.72,7.5-16.62,17.76-16.62s17.7,6.9,17.7,16.62-7.44,16.62-17.7,16.62S771.72,550,771.72,540.3Zm26,0c0-5.58-3.54-8.94-8.22-8.94s-8.28,3.36-8.28,8.94,3.6,8.94,8.28,8.94S797.7,545.88,797.7,540.3Z" transform="translate(-157.38 -439.44)"/><path class="cls-30" d="M813.42,511.92h9.36v44.52h-9.36Z" transform="translate(-157.38 -439.44)"/><path class="cls-31" d="M829.08,540.3c0-9.72,7.5-16.62,17.76-16.62s17.7,6.9,17.7,16.62-7.44,16.62-17.7,16.62S829.08,550,829.08,540.3Zm26,0c0-5.58-3.54-8.94-8.22-8.94s-8.28,3.36-8.28,8.94,3.6,8.94,8.28,8.94S855.06,545.88,855.06,540.3Z" transform="translate(-157.38 -439.44)"/><path class="cls-32" d="M890.82,523.68v8.64c-.78-.06-1.38-.12-2.1-.12-5.16,0-8.58,2.82-8.58,9v15.24h-9.36V524.16h8.94v4.26C882,525.3,885.84,523.68,890.82,523.68Z" transform="translate(-157.38 -439.44)"/><path class="cls-33" d="M893.4,553.44l3.12-6.72a22.08,22.08,0,0,0,11.22,3.12c4.32,0,5.94-1.14,5.94-2.94,0-5.28-19.5.12-19.5-12.78,0-6.12,5.52-10.44,14.94-10.44,4.44,0,9.36,1,12.42,2.82l-3.12,6.66a18.54,18.54,0,0,0-9.3-2.4c-4.2,0-6,1.32-6,3,0,5.52,19.5.18,19.5,12.9,0,6-5.58,10.26-15.24,10.26C901.92,556.92,896.4,555.42,893.4,553.44Z" transform="translate(-157.38 -439.44)"/><path class="cls-34" d="M271,626.88a13.38,13.38,0,0,1-7.62,2c-7.62,0-12.06-3.9-12.06-11.58V604.08h-5v-7.2h5V589h9.36v7.86h8v7.2h-8v13.14c0,2.76,1.5,4.26,4,4.26a6.31,6.31,0,0,0,3.78-1.2Z" transform="translate(-157.38 -439.44)"/><path class="cls-35" d="M309.27,610v18.48h-9.36v-17c0-5.22-2.4-7.62-6.54-7.62-4.5,0-7.74,2.76-7.74,8.7v16h-9.36V583.92h9.36v15.6a14.19,14.19,0,0,1,10.26-3.84C303.51,595.68,309.27,600.12,309.27,610Z" transform="translate(-157.38 -439.44)"/><path class="cls-36" d="M346.29,610v18.42h-8.76v-4c-1.74,2.94-5.1,4.5-9.84,4.5-7.56,0-12.06-4.2-12.06-9.78s4-9.66,13.86-9.66h7.44c0-4-2.4-6.36-7.44-6.36a15.52,15.52,0,0,0-9.3,3l-3.36-6.54c3.54-2.52,8.76-3.9,13.92-3.9C340.59,595.68,346.29,600.24,346.29,610Zm-9.36,8.22v-3.3h-6.42c-4.38,0-5.76,1.62-5.76,3.78,0,2.34,2,3.9,5.28,3.9C333.15,622.62,335.85,621.18,336.93,618.24Z" transform="translate(-157.38 -439.44)"/><path class="cls-37" d="M375.57,626.88a13.37,13.37,0,0,1-7.62,2c-7.62,0-12.06-3.9-12.06-11.58V604.08h-5v-7.2h5V589h9.36v7.86h8v7.2h-8v13.14c0,2.76,1.5,4.26,4,4.26a6.31,6.31,0,0,0,3.78-1.2Z" transform="translate(-157.38 -439.44)"/><path class="cls-38" d="M433,612.3c0,10.14-7,16.62-16.08,16.62-4.32,0-7.8-1.38-10.14-4.2v3.72h-8.94V583.92h9.36v15.66c2.4-2.64,5.7-3.9,9.72-3.9C426,595.68,433,602.16,433,612.3Zm-9.48,0c0-5.58-3.54-8.94-8.22-8.94s-8.22,3.36-8.22,8.94,3.54,8.94,8.22,8.94S423.51,617.88,423.51,612.3Z" transform="translate(-157.38 -439.44)"/><path class="cls-39" d="M459.27,595.68v8.64c-.78-.06-1.38-.12-2.1-.12-5.16,0-8.58,2.82-8.58,9v15.24h-9.36V596.16h8.94v4.26C450.45,597.3,454.29,595.68,459.27,595.68Z" transform="translate(-157.38 -439.44)"/><path class="cls-40" d="M463.71,586.44c0-2.94,2.34-5.22,5.82-5.22s5.82,2.16,5.82,5c0,3.12-2.34,5.4-5.82,5.4S463.71,589.38,463.71,586.44Zm1.14,9.72h9.36v32.28h-9.36Z" transform="translate(-157.38 -439.44)"/><path class="cls-41" d="M515.91,610v18.48h-9.36v-17c0-5.22-2.4-7.62-6.54-7.62-4.5,0-7.74,2.76-7.74,8.7v16h-9.36V596.16h8.94v3.78a14.13,14.13,0,0,1,10.68-4.26C510.15,595.68,515.91,600.12,515.91,610Z" transform="translate(-157.38 -439.44)"/><path class="cls-42" d="M558,596.16V623c0,12-6.48,17.52-18.12,17.52-6.12,0-12.06-1.5-15.84-4.44l3.72-6.72a19.29,19.29,0,0,0,11.4,3.66c6.6,0,9.48-3,9.48-8.82v-1.38c-2.46,2.7-6,4-10.2,4-8.94,0-16.14-6.18-16.14-15.6s7.2-15.6,16.14-15.6c4.5,0,8.22,1.5,10.68,4.62v-4.14Zm-9.24,15.12c0-4.74-3.54-7.92-8.46-7.92s-8.52,3.18-8.52,7.92,3.6,7.92,8.52,7.92S548.79,616,548.79,611.28Z" transform="translate(-157.38 -439.44)"/><path class="cls-43" d="M582.57,586.44c0-2.94,2.34-5.22,5.82-5.22s5.82,2.16,5.82,5c0,3.12-2.34,5.4-5.82,5.4S582.57,589.38,582.57,586.44Zm1.14,9.72h9.36v32.28h-9.36Z" transform="translate(-157.38 -439.44)"/><path class="cls-44" d="M622.59,626.88a13.37,13.37,0,0,1-7.62,2c-7.62,0-12.06-3.9-12.06-11.58V604.08h-5v-7.2h5V589h9.36v7.86h8v7.2h-8v13.14c0,2.76,1.5,4.26,4,4.26a6.31,6.31,0,0,0,3.78-1.2Z" transform="translate(-157.38 -439.44)"/><path class="cls-45" d="M665.67,626.88a13.37,13.37,0,0,1-7.62,2c-7.62,0-12.06-3.9-12.06-11.58V604.08h-5v-7.2h5V589h9.36v7.86h8v7.2h-8v13.14c0,2.76,1.5,4.26,4,4.26a6.31,6.31,0,0,0,3.78-1.2Z" transform="translate(-157.38 -439.44)"/><path class="cls-46" d="M667.53,612.3c0-9.72,7.5-16.62,17.76-16.62s17.7,6.9,17.7,16.62-7.44,16.62-17.7,16.62S667.53,622,667.53,612.3Zm26,0c0-5.58-3.54-8.94-8.22-8.94S677,606.72,677,612.3s3.6,8.94,8.28,8.94S693.51,617.88,693.51,612.3Z" transform="translate(-157.38 -439.44)"/><path class="cls-47" d="M726.21,583.92h9.36v44.52h-9.36Z" transform="translate(-157.38 -439.44)"/><path class="cls-48" d="M743.13,586.44c0-2.94,2.34-5.22,5.82-5.22s5.82,2.16,5.82,5c0,3.12-2.34,5.4-5.82,5.4S743.13,589.38,743.13,586.44Zm1.14,9.72h9.36v32.28h-9.36Z" transform="translate(-157.38 -439.44)"/><path class="cls-49" d="M772.59,596.88h8.28v7.2h-8v24.36h-9.36V604.08h-5v-7.2h5v-1.44c0-7.26,4.44-12,12.48-12a13.27,13.27,0,0,1,7.14,1.74L780.63,592a6.55,6.55,0,0,0-3.78-1.14c-2.76,0-4.26,1.5-4.26,4.68Z" transform="translate(-157.38 -439.44)"/><path class="cls-50" d="M816.57,614.94H792.15c.9,4,4.32,6.48,9.24,6.48a10.94,10.94,0,0,0,8.1-3.12l5,5.4c-3,3.42-7.5,5.22-13.32,5.22-11.16,0-18.42-7-18.42-16.62s7.38-16.62,17.22-16.62c9.48,0,16.8,6.36,16.8,16.74C816.75,613.14,816.63,614.16,816.57,614.94ZM792,609.48h15.9a8.06,8.06,0,0,0-15.9,0Z" transform="translate(-157.38 -439.44)"/><path class="cls-51" d="M820.71,623a5.82,5.82,0,0,1,11.64,0,5.82,5.82,0,1,1-11.64,0Z" transform="translate(-157.38 -439.44)"/></svg>