<svg id="Layer_1" data-name="Layer 1" xmlns="http://www.w3.org/2000/svg" xmlns:xlink="http://www.w3.org/1999/xlink" viewBox="0 0 625.59 87.55"><defs><style>.cls-1{fill:url(#linear-gradient);}.cls-2{fill:url(#linear-gradient-2);}.cls-3{fill:url(#linear-gradient-3);}.cls-4{fill:url(#linear-gradient-4);}.cls-5{fill:url(#linear-gradient-5);}.cls-6{fill:url(#linear-gradient-6);}.cls-7{fill:url(#linear-gradient-7);}.cls-8{fill:url(#linear-gradient-8);}.cls-9{fill:url(#linear-gradient-9);}.cls-10{fill:url(#linear-gradient-10);}.cls-11{fill:url(#linear-gradient-11);}.cls-12{fill:url(#linear-gradient-12);}.cls-13{fill:url(#linear-gradient-13);}.cls-14{fill:url(#linear-gradient-14);}.cls-15{fill:url(#linear-gradient-15);}.cls-16{fill:url(#linear-gradient-16);}.cls-17{fill:url(#linear-gradient-17);}.cls-18{fill:url(#linear-gradient-18);}.cls-19{fill:url(#linear-gradient-19);}.cls-20{fill:url(#linear-gradient-20);}.cls-21{fill:url(#linear-gradient-21);}.cls-22{fill:url(#linear-gradient-22);}.cls-23{fill:url(#linear-gradient-23);}.cls-24{fill:url(#linear-gradient-24);}.cls-25{fill:url(#linear-gradient-25);}.cls-26{fill:url(#linear-gradient-26);}.cls-27{fill:url(#linear-gradient-27);}.cls-28{fill:url(#linear-gradient-28);}.cls-29{fill:url(#linear-gradient-29);}.cls-30{fill:url(#linear-gradient-30);}.cls-31{fill:url(#linear-gradient-31);}.cls-32{fill:url(#linear-gradient-32);}.cls-33{fill:url(#linear-gradient-33);}.cls-34{fill:url(#linear-gradient-34);}.cls-35{fill:url(#linear-gradient-35);}.cls-36{fill:url(#linear-gradient-36);}.cls-37{fill:url(#linear-gradient-37);}.cls-38{fill:url(#linear-gradient-38);}.cls-39{fill:url(#linear-gradient-39);}.cls-40{fill:url(#linear-gradient-40);}.cls-41{fill:url(#linear-gradient-41);}.cls-42{fill:url(#linear-gradient-42);}.cls-43{fill:url(#linear-gradient-43);}.cls-44{fill:url(#linear-gradient-44);}.cls-45{fill:url(#linear-gradient-45);}.cls-46{fill:url(#linear-gradient-46);}.cls-47{fill:url(#linear-gradient-47);}.cls-48{fill:url(#linear-gradient-48);}.cls-49{fill:url(#linear-gradient-49);}.cls-50{fill:url(#linear-gradient-50);}.cls-51{fill:url(#linear-gradient-51);}</style><linearGradient id="linear-gradient" x1="205.81" y1="518.53" x2="943.81" y2="416.53" gradientUnits="userSpaceOnUse"><stop offset="0" stop-color="#7453cb"/><stop offset="1" stop-color="#130f25"/></linearGradient><linearGradient id="linear-gradient-2" x1="206.77" y1="525.47" x2="944.77" y2="423.47" xlink:href="#linear-gradient"/><linearGradient id="linear-gradient-3" x1="207.08" y1="527.7" x2="945.08" y2="425.7" xlink:href="#linear-gradient"/><linearGradient id="linear-gradient-4" x1="207.26" y1="529.02" x2="945.26" y2="427.02" xlink:href="#linear-gradient"/><linearGradient id="linear-gradient-5" x1="208.33" y1="536.72" x2="946.33" y2="434.72" xlink:href="#linear-gradient"/><linearGradient id="linear-gradient-6" x1="208.81" y1="540.22" x2="946.81" y2="438.22" xlink:href="#linear-gradient"/><linearGradient id="linear-gradient-7" x1="208.93" y1="541.09" x2="946.93" y2="439.09" xlink:href="#linear-gradient"/><linearGradient id="linear-gradient-8" x1="210.05" y1="549.17" x2="948.05" y2="447.17" xlink:href="#linear-gradient"/><linearGradient id="linear-gradient-9" x1="210.11" y1="549.59" x2="948.11" y2="447.59" xlink:href="#linear-gradient"/><linearGradient id="linear-gradient-10" x1="211.03" y1="556.28" x2="949.03" y2="454.28" xlink:href="#linear-gradient"/><linearGradient id="linear-gradient-11" x1="210.85" y1="554.96" x2="948.85" y2="452.96" xlink:href="#linear-gradient"/><linearGradient id="linear-gradient-12" x1="211.07" y1="556.6" x2="949.07" y2="454.6" xlink:href="#linear-gradient"/><linearGradient id="linear-gradient-13" x1="212.35" y1="565.8" x2="950.35" y2="463.8" xlink:href="#linear-gradient"/><linearGradient id="linear-gradient-14" x1="212.6" y1="567.65" x2="950.6" y2="465.65" xlink:href="#linear-gradient"/><linearGradient id="linear-gradient-15" x1="213.06" y1="570.93" x2="951.06" y2="468.93" xlink:href="#linear-gradient"/><linearGradient id="linear-gradient-16" x1="212.96" y1="570.27" x2="950.96" y2="468.27" xlink:href="#linear-gradient"/><linearGradient id="linear-gradient-17" x1="214.23" y1="579.4" x2="952.23" y2="477.4" xlink:href="#linear-gradient"/><linearGradient id="linear-gradient-18" x1="214.87" y1="584.07" x2="952.87" y2="482.07" xlink:href="#linear-gradient"/><linearGradient id="linear-gradient-19" x1="215.21" y1="586.51" x2="953.21" y2="484.51" xlink:href="#linear-gradient"/><linearGradient id="linear-gradient-20" x1="216.18" y1="593.53" x2="954.18" y2="491.53" xlink:href="#linear-gradient"/><linearGradient id="linear-gradient-21" x1="216.19" y1="593.58" x2="954.19" y2="491.58" xlink:href="#linear-gradient"/><linearGradient id="linear-gradient-22" x1="216.26" y1="594.14" x2="954.26" y2="492.14" xlink:href="#linear-gradient"/><linearGradient id="linear-gradient-23" x1="216.6" y1="596.61" x2="954.6" y2="494.61" xlink:href="#linear-gradient"/><linearGradient id="linear-gradient-24" x1="217.63" y1="604.01" x2="955.63" y2="502.01" xlink:href="#linear-gradient"/><linearGradient id="linear-gradient-25" x1="212.62" y1="567.79" x2="950.62" y2="465.79" xlink:href="#linear-gradient"/><linearGradient id="linear-gradient-26" x1="212.8" y1="569.11" x2="950.8" y2="467.11" xlink:href="#linear-gradient"/><linearGradient id="linear-gradient-27" x1="213.87" y1="576.82" x2="951.87" y2="474.82" xlink:href="#linear-gradient"/><linearGradient id="linear-gradient-28" x1="214.55" y1="581.77" x2="952.55" y2="479.77" xlink:href="#linear-gradient"/><linearGradient id="linear-gradient-29" x1="214.99" y1="584.92" x2="952.99" y2="482.92" xlink:href="#linear-gradient"/><linearGradient id="linear-gradient-30" x1="214.79" y1="583.51" x2="952.79" y2="481.51" xlink:href="#linear-gradient"/><linearGradient id="linear-gradient-31" x1="215.71" y1="590.11" x2="953.71" y2="488.11" xlink:href="#linear-gradient"/><linearGradient id="linear-gradient-32" x1="216.06" y1="592.7" x2="954.06" y2="490.7" xlink:href="#linear-gradient"/><linearGradient id="linear-gradient-33" x1="216.47" y1="595.67" x2="954.47" y2="493.67" xlink:href="#linear-gradient"/><linearGradient id="linear-gradient-34" x1="216.73" y1="597.54" x2="954.73" y2="495.54" xlink:href="#linear-gradient"/><linearGradient id="linear-gradient-35" x1="216.92" y1="598.86" x2="954.92" y2="496.86" xlink:href="#linear-gradient"/><linearGradient id="linear-gradient-36" x1="218.01" y1="606.76" x2="956.01" y2="504.76" xlink:href="#linear-gradient"/><linearGradient id="linear-gradient-37" x1="218.04" y1="607" x2="956.04" y2="505" xlink:href="#linear-gradient"/><linearGradient id="linear-gradient-38" x1="218.38" y1="609.44" x2="956.38" y2="507.44" xlink:href="#linear-gradient"/><linearGradient id="linear-gradient-39" x1="219.36" y1="616.53" x2="957.36" y2="514.53" xlink:href="#linear-gradient"/><linearGradient id="linear-gradient-40" x1="219.03" y1="614.15" x2="957.03" y2="512.15" xlink:href="#linear-gradient"/><linearGradient id="linear-gradient-41" x1="220.05" y1="621.55" x2="958.05" y2="519.55" xlink:href="#linear-gradient"/><linearGradient id="linear-gradient-42" x1="221.08" y1="628.99" x2="959.08" y2="526.99" xlink:href="#linear-gradient"/><linearGradient id="linear-gradient-43" x1="220.51" y1="624.9" x2="958.51" y2="522.9" xlink:href="#linear-gradient"/><linearGradient id="linear-gradient-44" x1="221.13" y1="629.33" x2="959.13" y2="527.33" xlink:href="#linear-gradient"/><linearGradient id="linear-gradient-45" x1="221.67" y1="633.23" x2="959.67" y2="531.23" xlink:href="#linear-gradient"/><linearGradient id="linear-gradient-46" x1="222.37" y1="638.36" x2="960.37" y2="536.36" xlink:href="#linear-gradient"/><linearGradient id="linear-gradient-47" x1="222.39" y1="638.48" x2="960.39" y2="536.48" xlink:href="#linear-gradient"/><linearGradient id="linear-gradient-48" x1="222.52" y1="639.41" x2="960.52" y2="537.41" xlink:href="#linear-gradient"/><linearGradient id="linear-gradient-49" x1="222.9" y1="642.19" x2="960.9" y2="540.19" xlink:href="#linear-gradient"/><linearGradient id="linear-gradient-50" x1="223.82" y1="648.79" x2="961.82" y2="546.79" xlink:href="#linear-gradient"/><linearGradient id="linear-gradient-51" x1="225.12" y1="658.19" x2="963.12" y2="556.19" xlink:href="#linear-gradient"/></defs><title>tothenbesubmerged</title><path class="cls-1" d="M234.86,506h-9v-5.28h24.4V506h-9v22.72h-6.48Z" transform="translate(-225.9 -497.21)"/><path class="cls-2" d="M249.54,517.92c0-6.48,5-11.08,11.84-11.08s11.8,4.6,11.8,11.08-5,11.08-11.8,11.08S249.54,524.4,249.54,517.92Zm17.32,0c0-3.72-2.36-6-5.48-6s-5.52,2.24-5.52,6,2.4,6,5.52,6S266.86,521.64,266.86,517.92Z" transform="translate(-225.9 -497.21)"/><path class="cls-3" d="M302.54,527.64a8.92,8.92,0,0,1-5.08,1.36c-5.08,0-8-2.6-8-7.72v-8.84H286.1v-4.8h3.32V502.4h6.24v5.24H301v4.8h-5.36v8.76a2.51,2.51,0,0,0,2.68,2.84,4.21,4.21,0,0,0,2.52-.8Z" transform="translate(-225.9 -497.21)"/><path class="cls-4" d="M328.06,516.36v12.32h-6.24V517.32c0-3.48-1.6-5.08-4.36-5.08-3,0-5.16,1.84-5.16,5.8v10.64h-6.24V499h6.24v10.4a9.46,9.46,0,0,1,6.84-2.56C324.22,506.84,328.06,509.8,328.06,516.36Z" transform="translate(-225.9 -497.21)"/><path class="cls-5" d="M354.9,519.68H338.62c.6,2.68,2.88,4.32,6.16,4.32a7.29,7.29,0,0,0,5.4-2.08l3.32,3.6c-2,2.28-5,3.48-8.88,3.48-7.44,0-12.28-4.68-12.28-11.08s4.92-11.08,11.48-11.08c6.32,0,11.2,4.24,11.2,11.16C355,518.48,354.94,519.16,354.9,519.68ZM338.54,516h10.6a5.37,5.37,0,0,0-10.6,0Z" transform="translate(-225.9 -497.21)"/><path class="cls-6" d="M381.18,516.36v12.32h-6.24V517.32c0-3.48-1.6-5.08-4.36-5.08-3,0-5.16,1.84-5.16,5.8v10.64h-6.24V507.16h6v2.52a9.42,9.42,0,0,1,7.12-2.84C377.34,506.84,381.18,509.8,381.18,516.36Z" transform="translate(-225.9 -497.21)"/><path class="cls-7" d="M421.58,517.92c0,6.76-4.68,11.08-10.72,11.08a8.36,8.36,0,0,1-6.76-2.8v2.48h-6V499h6.24v10.44a8.35,8.35,0,0,1,6.48-2.6C416.9,506.84,421.58,511.16,421.58,517.92Zm-6.32,0c0-3.72-2.36-6-5.48-6s-5.48,2.24-5.48,6,2.36,6,5.48,6S415.26,521.64,415.26,517.92Z" transform="translate(-225.9 -497.21)"/><path class="cls-8" d="M446.7,519.68H430.42c.6,2.68,2.88,4.32,6.16,4.32a7.29,7.29,0,0,0,5.4-2.08l3.32,3.6c-2,2.28-5,3.48-8.88,3.48-7.44,0-12.28-4.68-12.28-11.08s4.92-11.08,11.48-11.08c6.32,0,11.2,4.24,11.2,11.16C446.82,518.48,446.74,519.16,446.7,519.68ZM430.34,516h10.6a5.37,5.37,0,0,0-10.6,0Z" transform="translate(-225.9 -497.21)"/><path class="cls-9" d="M469.14,507.64h5.52v4.8H469.3v16.24h-6.24V512.44h-3.32v-4.8h3.32v-1c0-4.84,3-8,8.32-8a8.84,8.84,0,0,1,4.76,1.16l-1.64,4.52a4.37,4.37,0,0,0-2.52-.76c-1.84,0-2.84,1-2.84,3.12Z" transform="translate(-225.9 -497.21)"/><path class="cls-10" d="M499.46,507.16v21.52h-5.92v-2.56a8.7,8.7,0,0,1-6.68,2.88c-5.4,0-9.2-3-9.2-9.68V507.16h6.24V518.4c0,3.6,1.6,5.2,4.36,5.2s5-1.84,5-5.8V507.16Z" transform="translate(-225.9 -497.21)"/><path class="cls-11" d="M505.26,499h6.24v29.67h-6.24Z" transform="translate(-225.9 -497.21)"/><path class="cls-12" d="M517.3,499h6.24v29.67H517.3Z" transform="translate(-225.9 -497.21)"/><path class="cls-13" d="M550.7,507.16,541,530c-2.08,5.2-5,6.76-8.92,6.76a9.55,9.55,0,0,1-6-2l2.28-4.44a5.53,5.53,0,0,0,3.52,1.36c1.72,0,2.68-.76,3.52-2.68l.08-.2-9.32-21.68h6.44l6,14.6,6.08-14.6Z" transform="translate(-225.9 -497.21)"/><path class="cls-14" d="M562.5,526.68l2.08-4.48a14.72,14.72,0,0,0,7.48,2.08c2.88,0,4-.76,4-2,0-3.52-13,.08-13-8.52,0-4.08,3.68-7,10-7a17.7,17.7,0,0,1,8.28,1.88l-2.08,4.44a12.36,12.36,0,0,0-6.2-1.6c-2.8,0-4,.88-4,2,0,3.68,13,.12,13,8.6,0,4-3.72,6.84-10.16,6.84A18.47,18.47,0,0,1,562.5,526.68Z" transform="translate(-225.9 -497.21)"/><path class="cls-15" d="M607.49,507.16v21.52h-5.92v-2.56A8.7,8.7,0,0,1,594.9,529c-5.4,0-9.2-3-9.2-9.68V507.16h6.24V518.4c0,3.6,1.6,5.2,4.36,5.2s5-1.84,5-5.8V507.16Z" transform="translate(-225.9 -497.21)"/><path class="cls-16" d="M636.73,517.92c0,6.76-4.68,11.08-10.72,11.08a8.36,8.36,0,0,1-6.76-2.8v2.48h-6V499h6.24v10.44a8.35,8.35,0,0,1,6.48-2.6C632.05,506.84,636.73,511.16,636.73,517.92Zm-6.32,0c0-3.72-2.36-6-5.48-6s-5.48,2.24-5.48,6,2.36,6,5.48,6S630.42,521.64,630.42,517.92Z" transform="translate(-225.9 -497.21)"/><path class="cls-17" d="M677.25,516.36v12.32H671V517.32c0-3.48-1.56-5.08-4.08-5.08-2.8,0-4.76,1.8-4.76,5.64v10.8h-6.24V517.32c0-3.48-1.48-5.08-4.08-5.08-2.76,0-4.72,1.8-4.72,5.64v10.8H640.9V507.16h6v2.48a8.71,8.71,0,0,1,6.76-2.8,8,8,0,0,1,7.08,3.52,9.68,9.68,0,0,1,7.76-3.52C673.57,506.84,677.25,509.8,677.25,516.36Z" transform="translate(-225.9 -497.21)"/><path class="cls-18" d="M704.05,519.68H687.78c.6,2.68,2.88,4.32,6.16,4.32a7.3,7.3,0,0,0,5.4-2.08l3.32,3.6c-2,2.28-5,3.48-8.88,3.48-7.44,0-12.28-4.68-12.28-11.08s4.92-11.08,11.48-11.08c6.32,0,11.2,4.24,11.2,11.16C704.17,518.48,704.09,519.16,704.05,519.68ZM687.7,516h10.6a5.37,5.37,0,0,0-10.6,0Z" transform="translate(-225.9 -497.21)"/><path class="cls-19" d="M721.69,506.84v5.76c-.52,0-.92-.08-1.4-.08-3.44,0-5.72,1.88-5.72,6v10.16h-6.24V507.16h6V510C715.82,507.92,718.38,506.84,721.69,506.84Z" transform="translate(-225.9 -497.21)"/><path class="cls-20" d="M747.41,507.16v17.92c0,8-4.32,11.68-12.08,11.68-4.08,0-8-1-10.56-3l2.48-4.48a12.86,12.86,0,0,0,7.6,2.44c4.4,0,6.32-2,6.32-5.88V525a8.86,8.86,0,0,1-6.8,2.68c-6,0-10.76-4.12-10.76-10.4s4.8-10.4,10.76-10.4a8.64,8.64,0,0,1,7.12,3.08v-2.76Zm-6.16,10.08c0-3.16-2.36-5.28-5.64-5.28s-5.68,2.12-5.68,5.28,2.4,5.28,5.68,5.28S741.25,520.4,741.25,517.24Z" transform="translate(-225.9 -497.21)"/><path class="cls-21" d="M774.17,519.68H757.9c.6,2.68,2.88,4.32,6.16,4.32a7.3,7.3,0,0,0,5.4-2.08l3.32,3.6c-2,2.28-5,3.48-8.88,3.48-7.44,0-12.28-4.68-12.28-11.08s4.92-11.08,11.48-11.08c6.32,0,11.2,4.24,11.2,11.16C774.29,518.48,774.21,519.16,774.17,519.68ZM757.82,516h10.6a5.37,5.37,0,0,0-10.6,0Z" transform="translate(-225.9 -497.21)"/><path class="cls-22" d="M800.37,499v29.67h-6V526.2a8.28,8.28,0,0,1-6.72,2.8c-6.08,0-10.76-4.32-10.76-11.08s4.68-11.08,10.76-11.08a8.26,8.26,0,0,1,6.44,2.6V499Zm-6.12,18.92c0-3.72-2.4-6-5.48-6s-5.52,2.24-5.52,6,2.4,6,5.52,6S794.25,521.64,794.25,517.92Z" transform="translate(-225.9 -497.21)"/><path class="cls-23" d="M816.7,500.68a3.57,3.57,0,0,1,3.88-3.48c2.32,0,3.88,1.44,3.88,3.36a3.9,3.9,0,0,1-7.76.12Zm.76,6.48h6.24v21.52h-6.24Z" transform="translate(-225.9 -497.21)"/><path class="cls-24" d="M851.49,516.36v12.32h-6.24V517.32c0-3.48-1.6-5.08-4.36-5.08-3,0-5.16,1.84-5.16,5.8v10.64H829.5V507.16h6v2.52a9.42,9.42,0,0,1,7.12-2.84C847.65,506.84,851.49,509.8,851.49,516.36Z" transform="translate(-225.9 -497.21)"/><path class="cls-25" d="M250.9,575.64a8.92,8.92,0,0,1-5.08,1.36c-5.08,0-8-2.6-8-7.72v-8.84h-3.32v-4.8h3.32V550.4H244v5.24h5.36v4.8H244v8.76A2.51,2.51,0,0,0,246.7,572a4.2,4.2,0,0,0,2.52-.8Z" transform="translate(-225.9 -497.21)"/><path class="cls-26" d="M276.42,564.36v12.32h-6.24V565.32c0-3.48-1.6-5.08-4.36-5.08-3,0-5.16,1.84-5.16,5.8v10.64h-6.24V547h6.24v10.4a9.46,9.46,0,0,1,6.84-2.56C272.58,554.84,276.42,557.8,276.42,564.36Z" transform="translate(-225.9 -497.21)"/><path class="cls-27" d="M303.26,567.68H287c.6,2.68,2.88,4.32,6.16,4.32a7.29,7.29,0,0,0,5.4-2.08l3.32,3.6c-2,2.28-5,3.48-8.88,3.48-7.44,0-12.28-4.68-12.28-11.08s4.92-11.08,11.48-11.08c6.32,0,11.2,4.24,11.2,11.16C303.38,566.48,303.3,567.16,303.26,567.68ZM286.9,564h10.6a5.37,5.37,0,0,0-10.6,0Z" transform="translate(-225.9 -497.21)"/><path class="cls-28" d="M317.26,565.92c0-6.48,5-11.08,12-11.08,4.52,0,8.08,2,9.64,5.48l-4.84,2.6a5.37,5.37,0,0,0-4.84-3c-3.16,0-5.64,2.2-5.64,6s2.48,6,5.64,6a5.3,5.3,0,0,0,4.84-3l4.84,2.64c-1.56,3.44-5.12,5.44-9.64,5.44C322.26,577,317.26,572.4,317.26,565.92Z" transform="translate(-225.9 -497.21)"/><path class="cls-29" d="M340.62,565.92c0-6.48,5-11.08,11.84-11.08s11.8,4.6,11.8,11.08-5,11.08-11.8,11.08S340.62,572.4,340.62,565.92Zm17.32,0c0-3.72-2.36-6-5.48-6s-5.52,2.24-5.52,6,2.4,6,5.52,6S357.94,569.64,357.94,565.92Z" transform="translate(-225.9 -497.21)"/><path class="cls-30" d="M368.42,547h6.24v29.67h-6.24Z" transform="translate(-225.9 -497.21)"/><path class="cls-31" d="M378.86,565.92c0-6.48,5-11.08,11.84-11.08s11.8,4.6,11.8,11.08-5,11.08-11.8,11.08S378.86,572.4,378.86,565.92Zm17.32,0c0-3.72-2.36-6-5.48-6s-5.52,2.24-5.52,6,2.4,6,5.52,6S396.18,569.64,396.18,565.92Z" transform="translate(-225.9 -497.21)"/><path class="cls-32" d="M420,554.84v5.76c-.52,0-.92-.08-1.4-.08-3.44,0-5.72,1.88-5.72,6v10.16h-6.24V555.16h6V558C414.14,555.92,416.7,554.84,420,554.84Z" transform="translate(-225.9 -497.21)"/><path class="cls-33" d="M421.74,574.68l2.08-4.48a14.73,14.73,0,0,0,7.48,2.08c2.88,0,4-.76,4-2,0-3.52-13,.08-13-8.52,0-4.08,3.68-7,10-7a17.7,17.7,0,0,1,8.28,1.88l-2.08,4.44a12.36,12.36,0,0,0-6.2-1.6c-2.8,0-4,.88-4,2,0,3.68,13,.12,13,8.6,0,4-3.72,6.84-10.16,6.84A18.47,18.47,0,0,1,421.74,574.68Z" transform="translate(-225.9 -497.21)"/><path class="cls-34" d="M470.26,575.64a8.92,8.92,0,0,1-5.08,1.36c-5.08,0-8-2.6-8-7.72v-8.84h-3.32v-4.8h3.32V550.4h6.24v5.24h5.36v4.8h-5.36v8.76a2.51,2.51,0,0,0,2.68,2.84,4.2,4.2,0,0,0,2.52-.8Z" transform="translate(-225.9 -497.21)"/><path class="cls-35" d="M495.78,564.36v12.32h-6.24V565.32c0-3.48-1.6-5.08-4.36-5.08-3,0-5.16,1.84-5.16,5.8v10.64h-6.24V547H480v10.4a9.46,9.46,0,0,1,6.84-2.56C491.94,554.84,495.78,557.8,495.78,564.36Z" transform="translate(-225.9 -497.21)"/><path class="cls-36" d="M520.46,564.4v12.28h-5.84V574c-1.16,2-3.4,3-6.56,3-5,0-8-2.8-8-6.52s2.68-6.44,9.24-6.44h5c0-2.68-1.6-4.24-5-4.24a10.34,10.34,0,0,0-6.2,2l-2.24-4.36a16.54,16.54,0,0,1,9.28-2.6C516.66,554.84,520.46,557.88,520.46,564.4Zm-6.24,5.48v-2.2h-4.28c-2.92,0-3.84,1.08-3.84,2.52s1.32,2.6,3.52,2.6A4.6,4.6,0,0,0,514.22,569.88Z" transform="translate(-225.9 -497.21)"/><path class="cls-37" d="M540,575.64A8.92,8.92,0,0,1,534.9,577c-5.08,0-8-2.6-8-7.72v-8.84h-3.32v-4.8h3.32V550.4h6.24v5.24h5.36v4.8H533.1v8.76a2.51,2.51,0,0,0,2.68,2.84,4.2,4.2,0,0,0,2.52-.8Z" transform="translate(-225.9 -497.21)"/><path class="cls-38" d="M578.26,565.92c0,6.76-4.68,11.08-10.72,11.08a8.36,8.36,0,0,1-6.76-2.8v2.48h-6V547h6.24v10.44a8.35,8.35,0,0,1,6.48-2.6C573.58,554.84,578.26,559.16,578.26,565.92Zm-6.32,0c0-3.72-2.36-6-5.48-6s-5.48,2.24-5.48,6,2.36,6,5.48,6S571.94,569.64,571.94,565.92Z" transform="translate(-225.9 -497.21)"/><path class="cls-39" d="M595.78,554.84v5.76c-.52,0-.92-.08-1.4-.08-3.44,0-5.72,1.88-5.72,6v10.16h-6.24V555.16h6V558C589.9,555.92,592.46,554.84,595.78,554.84Z" transform="translate(-225.9 -497.21)"/><path class="cls-40" d="M598.74,548.68a3.57,3.57,0,0,1,3.88-3.48c2.32,0,3.88,1.44,3.88,3.36a3.9,3.9,0,0,1-7.76.12Zm.76,6.48h6.24v21.52H599.5Z" transform="translate(-225.9 -497.21)"/><path class="cls-41" d="M633.54,564.36v12.32H627.3V565.32c0-3.48-1.6-5.08-4.36-5.08-3,0-5.16,1.84-5.16,5.8v10.64h-6.24V555.16h6v2.52a9.42,9.42,0,0,1,7.12-2.84C629.7,554.84,633.54,557.8,633.54,564.36Z" transform="translate(-225.9 -497.21)"/><path class="cls-42" d="M661.62,555.16v17.92c0,8-4.32,11.68-12.08,11.68-4.08,0-8-1-10.56-3l2.48-4.48a12.86,12.86,0,0,0,7.6,2.44c4.4,0,6.32-2,6.32-5.88V573a8.86,8.86,0,0,1-6.8,2.68c-6,0-10.76-4.12-10.76-10.4s4.8-10.4,10.76-10.4a8.64,8.64,0,0,1,7.12,3.08v-2.76Zm-6.16,10.08c0-3.16-2.36-5.28-5.64-5.28s-5.68,2.12-5.68,5.28,2.4,5.28,5.68,5.28S655.46,568.4,655.46,565.24Z" transform="translate(-225.9 -497.21)"/><path class="cls-43" d="M678,548.68a3.57,3.57,0,0,1,3.88-3.48c2.32,0,3.88,1.44,3.88,3.36a3.9,3.9,0,0,1-7.76.12Zm.76,6.48H685v21.52h-6.24Z" transform="translate(-225.9 -497.21)"/><path class="cls-44" d="M704.66,575.64a8.91,8.91,0,0,1-5.08,1.36c-5.08,0-8-2.6-8-7.72v-8.84h-3.32v-4.8h3.32V550.4h6.24v5.24h5.36v4.8h-5.36v8.76a2.51,2.51,0,0,0,2.68,2.84,4.2,4.2,0,0,0,2.52-.8Z" transform="translate(-225.9 -497.21)"/><path class="cls-45" d="M733.38,575.64A8.91,8.91,0,0,1,728.3,577c-5.08,0-8-2.6-8-7.72v-8.84h-3.32v-4.8h3.32V550.4h6.24v5.24h5.36v4.8H726.5v8.76a2.51,2.51,0,0,0,2.68,2.84,4.2,4.2,0,0,0,2.52-.8Z" transform="translate(-225.9 -497.21)"/><path class="cls-46" d="M734.62,565.92c0-6.48,5-11.08,11.84-11.08s11.8,4.6,11.8,11.08-5,11.08-11.8,11.08S734.62,572.4,734.62,565.92Zm17.32,0c0-3.72-2.36-6-5.48-6s-5.52,2.24-5.52,6,2.4,6,5.52,6S751.93,569.64,751.93,565.92Z" transform="translate(-225.9 -497.21)"/><path class="cls-47" d="M773.74,547H780v29.67h-6.24Z" transform="translate(-225.9 -497.21)"/><path class="cls-48" d="M785,548.68a3.57,3.57,0,0,1,3.88-3.48c2.32,0,3.88,1.44,3.88,3.36a3.9,3.9,0,0,1-7.76.12Zm.76,6.48H792v21.52h-6.24Z" transform="translate(-225.9 -497.21)"/><path class="cls-49" d="M804.66,555.64h5.52v4.8h-5.36v16.24h-6.24V560.44h-3.32v-4.8h3.32v-1c0-4.84,3-8,8.32-8a8.84,8.84,0,0,1,4.76,1.16L810,552.36a4.37,4.37,0,0,0-2.52-.76c-1.84,0-2.84,1-2.84,3.12Z" transform="translate(-225.9 -497.21)"/><path class="cls-50" d="M834,567.68H817.7c.6,2.68,2.88,4.32,6.16,4.32a7.3,7.3,0,0,0,5.4-2.08l3.32,3.6c-2,2.28-5,3.48-8.88,3.48-7.44,0-12.28-4.68-12.28-11.08s4.92-11.08,11.48-11.08c6.32,0,11.2,4.24,11.2,11.16C834.09,566.48,834,567.16,834,567.68ZM817.62,564h10.6a5.37,5.37,0,0,0-10.6,0Z" transform="translate(-225.9 -497.21)"/><path class="cls-51" d="M836.74,573.08a3.88,3.88,0,0,1,7.76,0,3.88,3.88,0,1,1-7.76,0Z" transform="translate(-225.9 -497.21)"/></svg>