<svg id="Layer_1" data-name="Layer 1" xmlns="http://www.w3.org/2000/svg" viewBox="0 0 1920 1080"><defs><style>.cls-1{fill:#fff;}</style></defs><title>SnapshotsLogo</title><path class="cls-1" d="M1360,289.28a80,80,0,0,0-142.26,42.34h0s0,.1,0,.15c-.1,1-.16,2-.21,2.83h0a0,0,0,0,1,0,0,71.49,71.49,0,0,1-23.92,47.1L1099,262.56l-3.09,2.57h0c-1,.76-1.9,1.56-2.82,2.36l-.08.06a80,80,0,0,0,43.55,139.68,82.36,82.36,0,0,0,9.25.53,79.29,79.29,0,0,0,46.54-15.06L1309.22,540H1319l.09-.12-120.68-152a79.3,79.3,0,0,0,26.78-52.14h0l0-.4s0-.05,0-.08c.08-.92.16-1.86.2-2.77l0-.17a72.17,72.17,0,0,1,128.38-38.16,72.18,72.18,0,0,1-113,89.8l-6.11,4.85A80,80,0,0,0,1360,289.28ZM1089.1,372.67a72.26,72.26,0,0,1,8.72-99l89.63,112.92A72.26,72.26,0,0,1,1089.1,372.67Z"/><path class="cls-1" d="M821.14,260.05l-4.85,6.11,0,0-90,113.45a71.54,71.54,0,0,1-23.84-47c-.05-1-.11-1.9-.23-3a79.22,79.22,0,0,0-29.87-55.18,80,80,0,1,0,12.88,112.39l-6.11-4.85a72.21,72.21,0,1,1,15.36-51.4c0,.89.11,1.81.2,2.84a1,1,0,0,1,0,.17,0,0,0,0,1,0,0,79.26,79.26,0,0,0,26.72,52.21l-122.08,154,.09.11.11.14h9.77l-.11-.14L727.61,390.62A80.07,80.07,0,0,0,837,375.5C864.45,341,855.68,287.49,821.14,260.05Zm9.77,110.6a72.28,72.28,0,0,1-98.45,13.85l89.7-113.13C848.39,297.27,854,341.54,830.91,370.65Z"/></svg>