<svg id="Layer_1" data-name="Layer 1" xmlns="http://www.w3.org/2000/svg" viewBox="0 0 1920 1080"><defs><style>.cls-1{fill:#262626;}.cls-2{fill:#fff;}</style></defs><title>SnapshotsLogo</title><path class="cls-1" d="M919.27,259.82l2.18.58a34.3,34.3,0,0,0,8.88,1.16A34.81,34.81,0,0,0,943.47,259a34.62,34.62,0,0,0,14.58,16.58l2,1.13,2-1.13A34.66,34.66,0,0,0,976.52,259a34.76,34.76,0,0,0,13.14,2.58,34.32,34.32,0,0,0,8.9-1.17l2.18-.58.58-2.18a34.54,34.54,0,0,0-40.69-42.7l-.62-.36-.62.36a34.54,34.54,0,0,0-40.69,42.7ZM960,267.57a26.84,26.84,0,0,1-9.64-12.37A33.73,33.73,0,0,0,960,244.78a33.79,33.79,0,0,0,9.64,10.42A26.89,26.89,0,0,1,960,267.57Zm-11.42-21.92a26.83,26.83,0,0,1,6.53-17.5,34.7,34.7,0,0,0,.87,6.63,26.74,26.74,0,0,1-6.67,11.17c-.23.23-.46.44-.69.65C948.6,246.28,948.58,246,948.58,245.64Zm22.82,1c-.23-.22-.47-.43-.69-.65A26.73,26.73,0,0,1,964,234.77a34.74,34.74,0,0,0,.87-6.62,26.84,26.84,0,0,1,6.53,17.5C971.42,246,971.4,246.28,971.39,246.6Zm22.89,6.77a26.68,26.68,0,0,1-15.57-1.92,34.24,34.24,0,0,0,.51-5.81,34.66,34.66,0,0,0-9.35-23.6,26.72,26.72,0,0,1,24.41,31.32Zm-61.13-23.58a26.84,26.84,0,0,1,17-7.76,34.65,34.65,0,0,0-9.36,23.62,34.26,34.26,0,0,0,.51,5.78,27.05,27.05,0,0,1-15.56,1.94A26.82,26.82,0,0,1,933.15,229.78Z"/><path class="cls-1" d="M1000.74,820.17l-2.18-.58a34.6,34.6,0,0,0-22,1.42A34.66,34.66,0,0,0,962,804.43l-2-1.13-2,1.13A34.62,34.62,0,0,0,943.47,821a34.69,34.69,0,0,0-22-1.42l-2.18.58-.58,2.18A34.53,34.53,0,0,0,959.38,865l.62.36.62-.36a34.54,34.54,0,0,0,40.69-42.7ZM960,812.42a26.89,26.89,0,0,1,9.64,12.37A33.53,33.53,0,0,0,960,835.21a33.55,33.55,0,0,0-9.64-10.41A26.86,26.86,0,0,1,960,812.42Zm11.42,21.93a26.83,26.83,0,0,1-6.53,17.49,34.74,34.74,0,0,0-.87-6.62A26.73,26.73,0,0,1,970.7,834c.23-.23.46-.44.69-.65C971.4,833.71,971.42,834,971.42,834.35Zm-22.82-1c.23.22.47.43.69.65A26.74,26.74,0,0,1,956,845.22a34.7,34.7,0,0,0-.87,6.63,26.83,26.83,0,0,1-6.53-17.5C948.58,834,948.6,833.71,948.61,833.4Zm-22.88-6.77a27.06,27.06,0,0,1,15.56,1.94,34.28,34.28,0,0,0-.51,5.79A34.64,34.64,0,0,0,950.14,858a26.74,26.74,0,0,1-24.42-31.35Zm61.13,23.58a26.87,26.87,0,0,1-17,7.75,34.66,34.66,0,0,0,9.35-23.6,34.25,34.25,0,0,0-.51-5.81,26.76,26.76,0,0,1,15.57-1.92A26.87,26.87,0,0,1,986.86,850.2Z"/><path class="cls-1" d="M1065.87,648.62,1068,648l.58-2.18a89.4,89.4,0,0,0,1.66-38.57,131.26,131.26,0,0,0,112.84-65.34l1.13-2-1.13-2a131.15,131.15,0,0,0-112.86-65.38,89.53,89.53,0,0,0-1.65-38.53L1068,432l-2.18-.58a89.37,89.37,0,0,0-38.57-1.67A131.28,131.28,0,0,0,962,316.86l-2-1.13-2,1.13a131.15,131.15,0,0,0-65.38,112.86,89.46,89.46,0,0,0-38.53,1.65l-2.18.58-.58,2.18a89.38,89.38,0,0,0-1.67,38.57A131.28,131.28,0,0,0,736.86,538l-1.13,2,1.13,2a131.16,131.16,0,0,0,112.87,65.38,89.51,89.51,0,0,0,1.65,38.53L852,648l2.18.58a88.75,88.75,0,0,0,38.57,1.65A131.26,131.26,0,0,0,958,763.13l2,1.13,2-1.13a131.15,131.15,0,0,0,65.38-112.88,88.9,88.9,0,0,0,38.53-1.63Zm-4.22-7a81.77,81.77,0,0,1-34.55.66,130.67,130.67,0,0,0-11.77-47,130.65,130.65,0,0,0,47,11.76A81.68,81.68,0,0,1,1061.65,641.64Zm-84.87-95c1.74.1,3.47.16,5.21.16a90.05,90.05,0,0,0,22.07-2.76,81.35,81.35,0,0,1,56.29,55.09,123.16,123.16,0,0,1-51.3-15.79A131.11,131.11,0,0,0,976.78,546.61Zm13.08,23.22a123.22,123.22,0,0,1-13.59-13.58A123,123,0,0,1,989.86,569.83Zm-13.1-36.47A131.3,131.3,0,0,0,1009,496.65a123.15,123.15,0,0,1,51.32-15.8A81.29,81.29,0,0,1,1004,536,89.89,89.89,0,0,0,976.77,533.36Zm-.52-9.64a123,123,0,0,1,13.6-13.6A123.18,123.18,0,0,1,976.25,523.72Zm-9.63-.51a90,90,0,0,0-2.6-27.27,81.36,81.36,0,0,1,55.09-56.3,123.16,123.16,0,0,1-15.79,51.3A131.11,131.11,0,0,0,966.62,523.21Zm-13.26,0A131.3,131.3,0,0,0,916.65,491a123.14,123.14,0,0,1-15.8-51.32A81.33,81.33,0,0,1,956,495.94,89.87,89.87,0,0,0,953.37,523.22Zm-9.64.51a123,123,0,0,1-13.59-13.59A123.19,123.19,0,0,1,943.73,523.73Zm-.51,9.64A90,90,0,0,0,915.94,536a81.37,81.37,0,0,1-56.29-55.1A123.16,123.16,0,0,1,911,496.67,131.11,131.11,0,0,0,943.22,533.37ZM938,546.79c1.75,0,3.51-.06,5.27-.16A131.32,131.32,0,0,0,911,583.34a123.15,123.15,0,0,1-51.32,15.8A81.33,81.33,0,0,1,915.94,544,90,90,0,0,0,938,546.79Zm5.78,9.48a123,123,0,0,1-13.58,13.59A123.21,123.21,0,0,1,943.74,556.27Zm9.64.51A90,90,0,0,0,956,584a81.36,81.36,0,0,1-55.1,56.29A123.15,123.15,0,0,1,916.68,589,131.11,131.11,0,0,0,953.38,556.77Zm13.26,0A131.32,131.32,0,0,0,1003.35,589a123.15,123.15,0,0,1,15.8,51.32A81.32,81.32,0,0,1,964,584,89.86,89.86,0,0,0,966.64,556.77Zm103.26-76.31A123.34,123.34,0,0,1,1175.23,540,123.45,123.45,0,0,1,1069.9,599.5l-1.33,0A89.13,89.13,0,0,0,1016.28,540a89.07,89.07,0,0,0,52.27-59.5Zm-8.25-42.11a81.78,81.78,0,0,1,.66,34.54,130.67,130.67,0,0,0-47,11.77,130.66,130.66,0,0,0,11.76-47A81.56,81.56,0,0,1,1061.65,438.35ZM900.46,430.1A123.35,123.35,0,0,1,960,324.76,123.46,123.46,0,0,1,1019.5,430.1c0,.44,0,.89,0,1.33A89.13,89.13,0,0,0,960,483.7a89.13,89.13,0,0,0-59.5-52.27C900.48,431,900.46,430.55,900.46,430.1Zm-42.11,8.25a81.74,81.74,0,0,1,34.54-.66,130.67,130.67,0,0,0,11.77,47,130.65,130.65,0,0,0-47-11.76A81.66,81.66,0,0,1,858.35,438.35ZM850.1,599.53A123.35,123.35,0,0,1,744.77,540,123.46,123.46,0,0,1,850.1,480.49l1.33,0A89.13,89.13,0,0,0,903.71,540a89.11,89.11,0,0,0-52.26,59.5Zm8.25,42.11a81.76,81.76,0,0,1-.66-34.55,130.67,130.67,0,0,0,47-11.77,130.65,130.65,0,0,0-11.76,47A81.68,81.68,0,0,1,858.36,641.64Zm161.18,8.25A123.34,123.34,0,0,1,960,755.23,123.45,123.45,0,0,1,900.5,649.89c0-.45,0-.9,0-1.35A89,89,0,0,0,960,596.29a89,89,0,0,0,59.5,52.23C1019.52,649,1019.54,649.43,1019.54,649.89Z"/><path class="cls-2" d="M1346.83,682.33a80,80,0,0,0-112.38,12.87l6.11,4.85a72.2,72.2,0,1,1-15.37,51.4c0-.89-.11-1.82-.2-2.84,0,0,0,0,0-.06v-.06l0-.22a79.26,79.26,0,0,0-27.62-52.84L1319,540h-9.78l.06.07L1191.23,690.7a80,80,0,0,0-98.52,125.72l.15.12c.9.78,1.81,1.56,2.76,2.31l0-.07,3.15,2.49,93.7-119.69a71.52,71.52,0,0,1,24.7,47.78c.06.94.12,1.89.23,3A80,80,0,0,0,1296.92,825a80,80,0,0,0,49.91-142.62Zm-249.3,127.94a72.17,72.17,0,0,1,88.88-113.41Z"/><path class="cls-2" d="M837.27,704.43A80,80,0,0,0,728,689.22L609.4,540h-9.77L721.88,694.08A79.32,79.32,0,0,0,695,746.74c-.08.91-.16,1.84-.19,2.63,0,.1,0,.19,0,.3A72.16,72.16,0,1,1,679.44,698l6.11-4.85A80,80,0,1,0,613.82,822.4a80.28,80.28,0,0,0,9.27.53,80,80,0,0,0,79.44-72.35l0-.4c.1-1,.16-1.92.22-3a71.49,71.49,0,0,1,24-47L817.5,814.41l0,0,4,5.06c16.73-13.29,30.13-34.92,32.56-56.15A79.47,79.47,0,0,0,837.27,704.43Zm9.08,58c-1.9,16.62-11.47,33.71-23.83,45.77L732.85,695.34a72.18,72.18,0,0,1,113.5,67.07Z"/></svg>