<svg id="Layer_1" data-name="Layer 1" xmlns="http://www.w3.org/2000/svg" viewBox="0 0 31.67 26.34"><defs><style>.cls-1{fill:#fff;}</style></defs><title>Bag</title><path class="cls-1" d="M40.31,22.82H31.14V18a6.14,6.14,0,0,0-12.28,0v4.86H9.69a.52.52,0,0,0-.47.74l.42.91,6.23,13.39a.52.52,0,0,0,.47.3h17.3a.52.52,0,0,0,.47-.3l6.23-13.39.42-.91A.52.52,0,0,0,40.31,22.82ZM20.1,21.66V16.92a5,5,0,0,1,9.8,0v5.9H20.1Zm18.1,3.56-5.12,11a.52.52,0,0,1-.47.3H17.4a.52.52,0,0,1-.47-.3l-5.12-11a.52.52,0,0,1,.47-.74H37.72A.52.52,0,0,1,38.2,25.22Z" transform="translate(-9.17 -11.83)"/></svg>