<svg id="Layer_1" data-name="Layer 1" xmlns="http://www.w3.org/2000/svg" viewBox="0 0 19.08 17.9"><defs><style>.cls-1{fill:#fff;}</style></defs><title>books</title><path class="cls-1" d="M33.89,20.6H32.72v-2a.65.65,0,0,0-.88-.61l-1.42.53V16.7a.65.65,0,0,0-1.1-.47l-4.42,4.2-4.42-4.2a.65.65,0,0,0-1.1.47v1.83L18,18a.65.65,0,0,0-.87.61v2h-1a.65.65,0,0,0-.65.65v12a.65.65,0,0,0,.65.65H33.89a.65.65,0,0,0,.65-.65v-12A.65.65,0,0,0,33.89,20.6ZM31.78,19v11.4l-4.88,1.81,3.33-3.16a.65.65,0,0,0,.2-.47V19.53Zm-2.29-1.65V28.49l-4.11,3.9V21.28l.71-.67.81-.77Zm-9.16,0,2.59,2.46.81.77.71.8v11l-4.11-3.9V17.37ZM18,19l1.35.5v9.08a.65.65,0,0,0,.2.47l3.33,3.16L18,30.43V19ZM16.4,33V21.54h.69v9.09a.65.65,0,0,0,.42.61L22.29,33Zm17.2,0H27.52l4.77-1.77a.65.65,0,0,0,.42-.61V21.54h.88Z" transform="translate(-15.46 -16.05)"/></svg>