<svg id="Layer_1" data-name="Layer 1" xmlns="http://www.w3.org/2000/svg" viewBox="0 0 18.53 18.53"><defs><style>.cls-1{fill:#fff;}</style></defs><title>dismiss</title><path class="cls-1" d="M25,15.73A9.27,9.27,0,1,0,34.27,25,9.27,9.27,0,0,0,25,15.73Zm5.78,11.94a.5.5,0,0,1,0,.7l-2.4,2.4a.5.5,0,0,1-.7,0L25,28.11l-2.67,2.67a.5.5,0,0,1-.7,0l-2.4-2.4a.5.5,0,0,1,0-.7L21.9,25l-2.67-2.67a.5.5,0,0,1,0-.7l2.4-2.4a.5.5,0,0,1,.7,0L25,21.89l2.67-2.67a.5.5,0,0,1,.7,0l2.4,2.4a.5.5,0,0,1,0,.7L28.11,25Z" transform="translate(-15.73 -15.73)"/></svg>